<svg width="1277" height="730" viewBox="0 0 1277 730" fill="none" xmlns="http://www.w3.org/2000/svg">
<g clip-path="url(#clip0_166_2)">
<path d="M625.195 204.733C633.539 199.026 644.279 211.604 638.437 219.436C632.531 227.352 619.621 225.108 615.175 217.025C609.503 206.712 615.151 194.444 624.293 188.457C634.677 181.655 647.403 181.273 659.394 181.91C671.504 182.554 683.322 183.408 695.387 181.672C705.6 180.177 715.579 177.378 725.08 173.345C744.615 165.139 761.768 152.144 774.956 135.561C781.11 127.753 786.861 118.978 790.384 109.631C793.097 102.432 794.382 92.9634 790.538 85.9163C789.701 84.3308 788.523 82.9515 787.087 81.8784C785.651 80.8053 783.994 80.0654 782.237 79.7124C780.48 79.3594 778.666 79.4021 776.927 79.8375C775.188 80.2729 773.568 81.0901 772.184 82.2296C765.777 87.4791 764.046 97.2267 768.946 104.019C774.203 111.308 784.123 113.806 792.663 112.479C804.533 110.635 814.145 102.255 823.232 95.0401L890.532 41.6092C901.629 32.7987 912.613 23.8174 923.854 15.1901C932.995 8.17414 944.149 1.37139 956.054 5.11878C960.853 6.62937 965.69 10.2067 966.889 15.3463C967.337 17.6997 967.135 20.1309 966.303 22.3777C965.472 24.6245 964.042 26.6017 962.17 28.096C961.315 28.8225 960.317 29.3631 959.242 29.6837C958.167 30.0042 957.036 30.0977 955.923 29.9581C954.809 29.8184 953.737 29.4488 952.774 28.8727C951.811 28.2966 950.978 27.5265 950.328 26.6114C947.82 23.1122 947.613 18.1233 949.058 14.1694C952.92 3.60251 967.09 2.49696 976.546 3.35636C987.704 4.48702 998.482 8.03442 1008.13 13.7519C1028.11 25.3592 1042.89 44.2413 1051.56 65.4681C1061.17 88.9874 1064.13 115.013 1063.73 140.261C1063.65 145.411 1063.3 151.107 1060.4 155.547C1057.56 159.896 1052.61 161.212 1048.17 158.304C1046.72 157.357 1044.86 155.512 1045.24 153.566C1045.71 151.122 1050.58 151.104 1052.53 151.197C1057.87 151.453 1062.91 154.144 1066.74 157.771C1075.82 166.392 1076.53 179.582 1075.34 191.311C1074.04 204.187 1070.33 216.993 1071.81 230.027C1074.22 251.382 1091.74 263.248 1108.95 273.065C1117.77 278.092 1126.77 282.899 1134.7 289.295C1142.78 295.839 1149.85 303.535 1155.69 312.137C1167.22 329.109 1174.02 348.851 1175.39 369.328C1176.07 379.559 1175.27 389.835 1172.99 399.833C1170.73 409.612 1167.16 421.939 1157.76 427.192C1155.52 428.473 1152.95 429.036 1150.38 428.805C1147.81 428.574 1145.37 427.561 1143.4 425.903C1139.59 422.847 1137.73 417.424 1141.66 413.607C1144.92 410.444 1150.13 411.111 1154.07 412.397C1158.8 413.945 1162.48 416.834 1166.01 420.246C1172.74 426.752 1180.61 434.738 1190.84 432.66C1192.73 432.276 1191.93 429.384 1190.04 429.767C1177.69 432.275 1170.25 417.919 1161.14 412.392C1154.54 408.39 1143.28 405.415 1138.12 413.219C1132.56 421.641 1141.5 430.727 1149.81 431.812C1160.62 433.222 1168.11 422.657 1171.74 413.937C1180.15 393.713 1180.41 369.999 1175.27 348.94C1170.12 327.554 1159 308.073 1143.2 292.771C1135.22 285.169 1126.08 279.341 1116.54 273.916C1106.91 268.44 1096.87 263.186 1088.63 255.67C1084.07 251.646 1080.44 246.674 1077.99 241.102C1075.55 235.53 1074.35 229.491 1074.48 223.408C1074.56 209.396 1079.07 195.799 1078.79 181.76C1078.56 170.12 1074.6 158.754 1064.47 152.201C1060.3 149.37 1055.32 147.979 1050.28 148.239C1048.23 148.408 1045.36 148.753 1043.67 150.035C1042.31 151.068 1042.05 153.485 1042.33 155.048C1042.98 158.76 1046.49 161.338 1049.9 162.371C1051.97 163.037 1054.2 163.064 1056.29 162.448C1058.37 161.832 1060.23 160.601 1061.61 158.916C1064.89 155.129 1066.03 150.078 1066.49 145.215C1067.12 138.627 1066.77 131.859 1066.48 125.259C1065.3 98.4394 1060 70.9775 1046.06 47.6846C1034.21 27.8848 1015.79 11.283 993.695 3.93823C983.284 0.477227 970.934 -1.59696 960.191 1.55076C950.949 4.25899 943.866 11.8659 945.393 21.9406C946.684 30.469 955.521 36.3678 963.308 30.9849C965.146 29.7147 966.687 28.063 967.827 26.1426C968.968 24.2221 969.681 22.0782 969.917 19.8572C970.153 17.6361 969.907 15.3903 969.195 13.273C968.484 11.1557 967.324 9.21691 965.795 7.58889C958.267 -0.294585 945.992 -0.23785 936.599 3.76858C930.942 6.18127 925.934 9.79617 921.104 13.5515C914.946 18.3384 908.876 23.2399 902.768 28.0893L829.187 86.5071C823.379 91.1178 817.665 95.897 811.664 100.255C806.064 104.322 799.885 108.089 792.991 109.395C783.283 111.234 767.916 106.412 769.093 94.0984C769.55 89.3167 772.718 84.0349 777.559 82.6637C782.305 81.3197 786.785 84.3725 788.549 88.6943C792.438 98.2221 787.871 109.121 783.328 117.485C772.08 138.195 754.337 155.06 733.547 166.035C723.141 171.541 711.988 175.499 700.439 177.784C687.466 180.333 674.737 179.834 661.62 179.039C648.906 178.268 635.555 178.346 624.222 184.972C614.93 190.405 608.731 200.257 610.221 211.236C611.514 220.77 619.161 228.057 629.022 227.252C637.3 226.576 645.616 219.507 642.679 210.529C640.247 203.095 630.86 197.232 623.681 202.143C622.097 203.226 623.596 205.827 625.195 204.733Z" fill="#3F3D56"/>
<path d="M1260.96 421.329H1188.27C1187.14 421.33 1186.05 421.782 1185.25 422.585C1184.44 423.388 1183.99 424.477 1183.99 425.612V470.866C1183.99 472.001 1184.44 473.09 1185.25 473.893C1186.05 474.696 1187.14 475.148 1188.27 475.149H1260.96C1262.09 475.148 1263.18 474.696 1263.99 473.893C1264.79 473.09 1265.24 472.001 1265.24 470.866V425.612C1265.24 424.477 1264.79 423.388 1263.99 422.585C1263.18 421.782 1262.09 421.33 1260.96 421.329Z" fill="#F2F2F2"/>
<path d="M1260.96 421.329H1188.27C1187.14 421.33 1186.05 421.782 1185.25 422.585C1184.44 423.388 1183.99 424.477 1183.99 425.612V470.866C1183.99 472.001 1184.44 473.09 1185.25 473.893C1186.05 474.696 1187.14 475.148 1188.27 475.149H1260.96C1262.09 475.148 1263.18 474.696 1263.99 473.893C1264.79 473.09 1265.24 472.001 1265.24 470.866V425.612C1265.24 424.477 1264.79 423.388 1263.99 422.585C1263.18 421.782 1262.09 421.33 1260.96 421.329ZM1262.36 453.835C1262.35 458.442 1260.52 462.859 1257.29 466.138C1254.05 469.417 1249.66 471.297 1245.05 471.374C1237.68 471.47 1249.13 471.508 1240.24 471.508C1219.9 471.508 1198.69 471.313 1190.77 471.187C1189.73 471.166 1188.74 470.738 1188.01 469.996C1187.28 469.253 1186.87 468.255 1186.87 467.213V425.616C1186.87 425.243 1187.02 424.885 1187.28 424.621C1187.54 424.357 1187.9 424.208 1188.27 424.207H1260.95C1261.33 424.207 1261.69 424.355 1261.95 424.619C1262.21 424.882 1262.36 425.239 1262.36 425.612L1262.36 453.835Z" fill="#E6E6E6"/>
<path d="M1252.01 395.271H1196.63C1196.14 395.271 1195.66 395.423 1195.26 395.706C1194.86 395.988 1194.56 396.387 1194.39 396.848L1185.84 420.844C1185.71 421.202 1185.67 421.586 1185.73 421.962C1185.78 422.339 1185.92 422.698 1186.14 423.009C1186.36 423.32 1186.65 423.574 1186.98 423.749C1187.32 423.924 1187.7 424.016 1188.08 424.017L1262.35 424.149H1262.35C1262.74 424.149 1263.13 424.051 1263.48 423.865C1263.82 423.678 1264.12 423.409 1264.33 423.081C1264.55 422.753 1264.68 422.376 1264.72 421.984C1264.75 421.593 1264.69 421.199 1264.53 420.838L1254.19 396.71C1254.01 396.283 1253.71 395.919 1253.32 395.663C1252.93 395.407 1252.48 395.27 1252.01 395.271Z" fill="#E6E6E6"/>
<path d="M1264.73 421.359C1264.73 421.68 1264.66 421.999 1264.53 422.295L1254.19 440.867C1254.01 441.294 1253.71 441.657 1253.32 441.912C1252.93 442.168 1252.47 442.304 1252.01 442.305H1196.63C1196.14 442.304 1195.66 442.153 1195.26 441.871C1194.86 441.588 1194.56 441.189 1194.39 440.728L1185.84 422.288C1185.74 421.994 1185.69 421.683 1185.71 421.371C1185.72 421.06 1185.8 420.754 1185.93 420.473C1186.07 420.191 1186.26 419.938 1186.49 419.729C1186.72 419.52 1186.99 419.358 1187.28 419.254C1187.54 419.162 1187.8 419.115 1188.08 419.115L1197.15 419.098L1200.85 419.092L1249.58 419.006L1253.28 419L1262.35 418.983H1262.35C1262.98 418.983 1263.58 419.233 1264.03 419.679C1264.48 420.124 1264.73 420.728 1264.73 421.359Z" fill="#E6E6E6"/>
<path d="M1193.72 455.274C1194.82 455.274 1209.9 456.196 1209.9 457.294C1209.9 458.392 1194.82 459.251 1193.72 459.251C1193.19 459.251 1192.69 459.042 1192.32 458.669C1191.94 458.296 1191.73 457.79 1191.73 457.263C1191.73 456.735 1191.94 456.23 1192.32 455.857C1192.69 455.484 1193.19 455.274 1193.72 455.274Z" fill="#E6E6E6"/>
<path d="M1248.56 380.673H1201.87C1200.62 380.675 1199.42 381.172 1198.53 382.057C1197.65 382.942 1197.15 384.142 1197.15 385.393V442.305H1252.01C1252.46 442.306 1252.9 442.178 1253.28 441.935V385.393C1253.28 384.142 1252.78 382.942 1251.9 382.057C1251.01 381.172 1249.81 380.675 1248.56 380.673Z" fill="#F2F2F2"/>
<path d="M1230.74 384.5H1205.15C1204.01 384.501 1202.92 384.954 1202.11 385.76C1201.31 386.565 1200.85 387.658 1200.85 388.797V442.305H1249.58V403.337C1249.57 398.343 1247.58 393.555 1244.05 390.024C1240.52 386.492 1235.73 384.506 1230.74 384.5Z" fill="white"/>
<path d="M1241.28 437.553H1209.15C1208.87 437.553 1208.61 437.663 1208.41 437.86C1208.22 438.056 1208.11 438.322 1208.11 438.6C1208.11 438.878 1208.22 439.144 1208.41 439.34C1208.61 439.537 1208.87 439.647 1209.15 439.647H1241.28C1241.55 439.647 1241.82 439.537 1242.02 439.34C1242.21 439.144 1242.32 438.878 1242.32 438.6C1242.32 438.322 1242.21 438.056 1242.02 437.86C1241.82 437.663 1241.55 437.553 1241.28 437.553Z" fill="#E4E4E4"/>
<path d="M1241.28 433.412H1209.15C1208.87 433.412 1208.61 433.522 1208.41 433.719C1208.21 433.916 1208.1 434.182 1208.1 434.46C1208.1 434.738 1208.21 435.005 1208.41 435.201C1208.61 435.398 1208.87 435.508 1209.15 435.508H1241.28C1241.41 435.508 1241.55 435.481 1241.68 435.428C1241.8 435.376 1241.92 435.298 1242.02 435.201C1242.11 435.104 1242.19 434.988 1242.24 434.861C1242.3 434.734 1242.32 434.598 1242.32 434.46C1242.32 434.322 1242.3 434.186 1242.24 434.059C1242.19 433.932 1242.11 433.816 1242.02 433.719C1241.92 433.622 1241.8 433.544 1241.68 433.492C1241.55 433.439 1241.41 433.412 1241.28 433.412Z" fill="#E4E4E4"/>
<path d="M1223.08 429.273H1209.15C1208.87 429.273 1208.61 429.383 1208.41 429.58C1208.22 429.776 1208.11 430.043 1208.11 430.32C1208.11 430.598 1208.22 430.864 1208.41 431.061C1208.61 431.257 1208.87 431.367 1209.15 431.367H1223.08C1223.36 431.367 1223.62 431.257 1223.82 431.061C1224.01 430.864 1224.12 430.598 1224.12 430.32C1224.12 430.043 1224.01 429.776 1223.82 429.58C1223.62 429.383 1223.36 429.273 1223.08 429.273Z" fill="#E4E4E4"/>
<path d="M1241.28 420.602H1209.15C1208.87 420.603 1208.61 420.714 1208.41 420.91C1208.22 421.107 1208.11 421.373 1208.11 421.65C1208.11 421.928 1208.22 422.194 1208.41 422.39C1208.61 422.587 1208.87 422.698 1209.15 422.698H1241.28C1241.41 422.699 1241.55 422.672 1241.68 422.62C1241.81 422.567 1241.92 422.49 1242.02 422.393C1242.12 422.295 1242.19 422.18 1242.25 422.052C1242.3 421.925 1242.33 421.788 1242.33 421.65C1242.33 421.512 1242.3 421.376 1242.25 421.249C1242.19 421.121 1242.12 421.005 1242.02 420.908C1241.92 420.811 1241.81 420.734 1241.68 420.681C1241.55 420.629 1241.41 420.602 1241.28 420.602Z" fill="#E4E4E4"/>
<path d="M1241.28 416.463H1209.15C1208.87 416.463 1208.61 416.574 1208.41 416.77C1208.22 416.966 1208.11 417.233 1208.11 417.51C1208.11 417.788 1208.22 418.054 1208.41 418.251C1208.61 418.447 1208.87 418.557 1209.15 418.557H1241.28C1241.55 418.557 1241.82 418.447 1242.02 418.251C1242.21 418.054 1242.32 417.788 1242.32 417.51C1242.32 417.233 1242.21 416.966 1242.02 416.77C1241.82 416.574 1241.55 416.463 1241.28 416.463Z" fill="#E4E4E4"/>
<path d="M1223.08 412.322H1209.15C1208.87 412.322 1208.61 412.433 1208.41 412.629C1208.21 412.826 1208.1 413.092 1208.1 413.37C1208.1 413.648 1208.21 413.915 1208.41 414.112C1208.61 414.308 1208.87 414.419 1209.15 414.419H1223.08C1223.35 414.419 1223.62 414.308 1223.82 414.112C1224.01 413.915 1224.12 413.648 1224.12 413.37C1224.12 413.092 1224.01 412.826 1223.82 412.629C1223.62 412.433 1223.35 412.322 1223.08 412.322Z" fill="#E4E4E4"/>
<path d="M1241.28 403.652H1209.15C1208.87 403.652 1208.61 403.763 1208.41 403.96C1208.22 404.156 1208.11 404.422 1208.11 404.7C1208.11 404.977 1208.22 405.243 1208.41 405.44C1208.61 405.636 1208.87 405.747 1209.15 405.748H1241.28C1241.41 405.748 1241.55 405.721 1241.68 405.669C1241.81 405.616 1241.92 405.539 1242.02 405.442C1242.12 405.345 1242.19 405.229 1242.25 405.102C1242.3 404.974 1242.33 404.838 1242.33 404.7C1242.33 404.562 1242.3 404.425 1242.25 404.298C1242.19 404.17 1242.12 404.055 1242.02 403.957C1241.92 403.86 1241.81 403.783 1241.68 403.73C1241.55 403.678 1241.41 403.651 1241.28 403.652Z" fill="#E4E4E4"/>
<path d="M1241.28 399.513H1209.15C1208.87 399.514 1208.61 399.624 1208.41 399.821C1208.22 400.017 1208.11 400.283 1208.11 400.561C1208.11 400.838 1208.22 401.104 1208.41 401.301C1208.61 401.497 1208.87 401.608 1209.15 401.609H1241.28C1241.41 401.609 1241.55 401.582 1241.68 401.53C1241.81 401.477 1241.92 401.4 1242.02 401.303C1242.12 401.206 1242.19 401.09 1242.25 400.963C1242.3 400.835 1242.33 400.699 1242.33 400.561C1242.33 400.423 1242.3 400.286 1242.25 400.159C1242.19 400.032 1242.12 399.916 1242.02 399.819C1241.92 399.721 1241.81 399.644 1241.68 399.592C1241.55 399.539 1241.41 399.512 1241.28 399.513Z" fill="#E4E4E4"/>
<path d="M1223.08 395.372H1209.15C1208.87 395.372 1208.61 395.482 1208.41 395.679C1208.21 395.875 1208.1 396.142 1208.1 396.42C1208.1 396.698 1208.21 396.964 1208.41 397.161C1208.61 397.357 1208.87 397.468 1209.15 397.468H1223.08C1223.21 397.468 1223.35 397.441 1223.48 397.388C1223.6 397.335 1223.72 397.258 1223.82 397.161C1223.92 397.064 1223.99 396.948 1224.04 396.821C1224.1 396.694 1224.12 396.557 1224.12 396.42C1224.12 396.282 1224.1 396.146 1224.04 396.019C1223.99 395.892 1223.92 395.776 1223.82 395.679C1223.72 395.581 1223.6 395.504 1223.48 395.451C1223.35 395.399 1223.21 395.372 1223.08 395.372Z" fill="#E4E4E4"/>
<path d="M877.123 199.127C894.243 199.127 908.121 185.249 908.121 168.13C908.121 151.01 894.243 137.132 877.123 137.132C860.004 137.132 846.126 151.01 846.126 168.13C846.126 185.249 860.004 199.127 877.123 199.127Z" fill="#FFB6B6"/>
<path d="M912.508 150.381C909.247 145.337 903.128 141.975 897.196 142.92C896.644 139.134 895.064 135.573 892.628 132.623C890.192 129.673 886.993 127.448 883.381 126.191C879.768 124.933 875.879 124.691 872.138 125.49C868.397 126.289 864.946 128.1 862.163 130.724C861.248 130.08 860.181 129.682 859.067 129.571C857.954 129.46 856.83 129.638 855.805 130.088C853.763 131.016 851.987 132.442 850.639 134.234C847.235 138.479 845.046 143.567 844.305 148.957C843.564 154.347 844.298 159.837 846.429 164.843C845.704 162.208 848.345 159.729 851.014 159.137C853.682 158.546 856.481 159.105 859.187 158.72C862.656 158.227 865.773 156.215 869.247 155.762C872.167 155.381 875.102 156.13 877.949 156.88C880.796 157.63 883.725 158.395 886.648 158.048C889.572 157.701 893.338 168.781 893.287 176.585C893.278 178.064 893.582 179.963 895.028 180.277C896.808 180.663 897.839 178.206 899.533 177.537C900.314 177.313 901.151 177.401 901.868 177.783C902.585 178.164 903.126 178.809 903.377 179.581C903.591 180.367 903.614 181.192 903.444 181.987C903.274 182.783 902.917 183.527 902.402 184.157C901.361 185.406 900.124 186.478 898.741 187.333L899.439 187.913C900.599 189.446 903.007 189.513 904.68 188.564C906.279 187.481 907.575 186.006 908.442 184.28C911.537 179.132 914.252 173.648 915.344 167.741C916.436 161.835 915.768 155.426 912.508 150.381Z" fill="#2F2E41"/>
<path d="M913.485 710.95L896.745 710.948L888.781 646.376L913.489 646.377L913.485 710.95Z" fill="#FFB6B6"/>
<path d="M914.075 728.414L862.595 728.412V727.761C862.595 722.446 864.706 717.35 868.464 713.592C872.222 709.835 877.318 707.724 882.632 707.723H882.634L892.037 700.589L909.582 707.724L914.076 707.725L914.075 728.414Z" fill="#2F2E41"/>
<path d="M943.673 681.391L930.54 691.771L884.246 646.056L903.63 630.733L943.673 681.391Z" fill="#FFB6B6"/>
<path d="M954.967 694.725L914.581 726.65L914.178 726.139C910.882 721.97 909.378 716.663 909.995 711.385C910.613 706.106 913.301 701.29 917.47 697.994L917.471 697.993L920.423 686.565L938.612 681.281L942.137 678.494L954.967 694.725Z" fill="#2F2E41"/>
<path d="M826.918 408.274L825.896 427.117L830.867 433.122L830.297 451.969L835.12 464.305L838.512 503.551L886.018 667.307L928.827 653.576L882.08 500.926L938.324 499.521L940.227 413.447L930.26 394.179L826.918 408.274Z" fill="#2F2E41"/>
<path d="M932.915 486.545L938.324 499.521L917.409 682.241L888.064 684.384L875.392 480.109L932.915 486.545Z" fill="#2F2E41"/>
<path d="M904.155 217.278L894.519 203.94L863.405 205.187L862.808 215.457L842.139 410.681L862.437 410.226L887.634 416.109L936.097 399.147L904.155 217.278Z" fill="#2CBBBB"/>
<path d="M850.121 414.291H802.403L814.853 326.418L819.901 290.8C819.901 290.8 816.327 265.343 814.598 252.043C814.436 250.624 814.682 249.188 815.306 247.903C815.872 246.699 816.611 245.584 817.5 244.594C823.304 237.902 836.358 232.098 844.544 228.922C848.76 227.296 851.69 226.36 851.69 226.36L862.807 215.461C878.763 235.397 850.121 414.291 850.121 414.291Z" fill="#3F3D56"/>
<path d="M898.111 210.021L913.249 218.696C913.249 218.696 958.081 226.059 962.441 242.897L945.938 292.711V397.404L905.932 413.447C905.932 413.447 871.423 244.309 898.111 210.021Z" fill="#3F3D56"/>
<path opacity="0.4" d="M882.788 475.879L875.392 561.548L887.985 661.252" fill="black"/>
<path d="M704.219 316.285C705.452 315.399 706.865 314.794 708.357 314.513C709.849 314.232 711.385 314.281 712.856 314.657C714.327 315.034 715.697 315.728 716.871 316.692C718.045 317.655 718.993 318.864 719.649 320.234L756.326 316.086L747.633 333.184L714.136 334.501C711.763 335.451 709.123 335.496 706.718 334.63C704.313 333.763 702.309 332.044 701.087 329.798C699.864 327.553 699.508 324.937 700.085 322.447C700.663 319.956 702.133 317.764 704.219 316.285Z" fill="#FFB6B6"/>
<path d="M858.158 241.42L868.654 247.69L809.871 330.501L738.122 336.597L735.265 316.112L788.129 300.252L814.259 249.604L858.158 241.42Z" fill="#3F3D56"/>
<path d="M1072.1 309.285C1070.86 308.399 1069.45 307.794 1067.96 307.513C1066.47 307.232 1064.93 307.281 1063.46 307.657C1061.99 308.034 1060.62 308.728 1059.44 309.692C1058.27 310.655 1057.32 311.864 1056.67 313.234L1019.99 309.086L1028.68 326.184L1062.18 327.501C1064.55 328.451 1067.19 328.496 1069.6 327.63C1072 326.763 1074.01 325.044 1075.23 322.798C1076.45 320.553 1076.81 317.937 1076.23 315.447C1075.65 312.956 1074.18 310.764 1072.1 309.285Z" fill="#FFB6B6"/>
<path d="M918.156 234.42L907.661 240.69L966.444 323.501L1038.19 329.597L1041.05 309.112L988.186 293.252L962.056 242.604L918.156 234.42Z" fill="#3F3D56"/>
<path d="M934.646 63.4557C934.503 63.5148 934.342 63.5147 934.199 63.4553C934.056 63.396 933.942 63.2823 933.883 63.1393L932.364 59.4681C932.304 59.3249 932.305 59.1641 932.364 59.0209C932.423 58.8778 932.537 58.7641 932.68 58.7048C932.823 58.6456 932.984 58.6456 933.127 58.7049C933.271 58.7643 933.384 58.8781 933.444 59.0213L934.963 62.6924C935.022 62.8357 935.022 62.9964 934.962 63.1395C934.903 63.2826 934.789 63.3963 934.646 63.4557Z" fill="#3F3D56"/>
<path d="M965.291 36.2591L960.756 25.301C960.412 24.4682 959.906 23.7113 959.269 23.0737C958.632 22.4362 957.875 21.9303 957.043 21.5851C956.21 21.2399 955.318 21.0621 954.416 21.0618C953.515 21.0615 952.622 21.2387 951.789 21.5834L928.573 31.1909C927.74 31.5356 926.984 32.0409 926.346 32.6781C925.708 33.3152 925.203 34.0717 924.857 34.9044C924.512 35.737 924.334 36.6295 924.334 37.5309C924.334 38.4323 924.511 39.3249 924.856 40.1578L949.734 100.275C950.078 101.108 950.584 101.864 951.221 102.502C951.858 103.14 952.615 103.645 953.447 103.991C954.28 104.336 955.172 104.514 956.074 104.514C956.975 104.514 957.868 104.337 958.701 103.992L981.917 94.3849C982.75 94.0402 983.506 93.5349 984.144 92.8977C984.782 92.2606 985.287 91.5041 985.633 90.6714C985.978 89.8388 986.156 88.9463 986.156 88.0449C986.156 87.1435 985.979 86.2509 985.634 85.4181L968.519 44.0593C968.572 44.0376 968.619 44.0057 968.659 43.9655C968.7 43.9253 968.732 43.8776 968.753 43.8251C968.775 43.7726 968.786 43.7163 968.786 43.6595C968.786 43.6026 968.775 43.5463 968.753 43.4938L965.857 36.4936C965.835 36.4411 965.803 36.3934 965.763 36.3532C965.723 36.3129 965.675 36.281 965.622 36.2593C965.57 36.2375 965.514 36.2263 965.457 36.2262C965.4 36.2262 965.344 36.2374 965.291 36.2591Z" fill="#3F3D56"/>
<path d="M959.423 25.9019L984.266 85.9325C984.782 87.1793 984.786 88.5796 984.276 89.8291C983.766 91.0785 982.783 92.0762 981.541 92.6053C981.526 92.6152 981.509 92.6234 981.492 92.6299L958.163 102.284C956.906 102.804 955.494 102.803 954.238 102.283C952.982 101.762 951.984 100.763 951.464 99.5068L926.621 39.4762C926.364 38.8541 926.232 38.1875 926.232 37.5143C926.233 36.8411 926.366 36.1747 926.624 35.5529C926.882 34.9312 927.26 34.3663 927.736 33.8907C928.213 33.415 928.778 33.0379 929.4 32.7808L932.229 31.61C932.231 32.0097 932.332 32.4029 932.521 32.7548C932.711 33.1067 932.984 33.4064 933.317 33.6276C933.65 33.8489 934.033 33.9847 934.431 34.0233C934.829 34.0618 935.23 34.0018 935.599 33.8486L948.9 28.3444C949.19 28.224 949.454 28.0472 949.675 27.8241C949.903 27.5998 950.084 27.3326 950.208 27.038C950.333 26.7434 950.398 26.4272 950.4 26.1074C950.402 25.7876 950.341 25.4705 950.22 25.1744C950.099 24.8784 949.921 24.6091 949.696 24.382L952.729 23.1265C953.985 22.607 955.396 22.6076 956.651 23.128C957.906 23.6485 958.904 24.6463 959.423 25.9019Z" fill="#2CBBBB"/>
<path d="M932.055 57.1932C931.912 57.2522 931.751 57.2521 931.608 57.1927C931.465 57.1334 931.352 57.0198 931.292 56.8767L929.773 53.2055C929.714 53.0623 929.714 52.9015 929.773 52.7583C929.832 52.6152 929.946 52.5015 930.089 52.4422C930.233 52.383 930.393 52.383 930.537 52.4424C930.68 52.5017 930.793 52.6155 930.853 52.7587L932.372 56.4299C932.431 56.5731 932.431 56.7338 932.372 56.8769C932.312 57.02 932.199 57.1338 932.055 57.1932Z" fill="#3F3D56"/>
<path d="M928.998 50.1115C928.854 50.1705 928.694 50.1704 928.551 50.1111C928.407 50.0517 928.294 49.9381 928.234 49.795L926.715 46.1238C926.685 46.0529 926.67 45.9768 926.67 45.8999C926.67 45.823 926.685 45.7468 926.714 45.6757C926.743 45.6047 926.786 45.5401 926.841 45.4857C926.895 45.4313 926.96 45.3881 927.031 45.3587C927.102 45.3293 927.178 45.3142 927.255 45.3143C927.332 45.3144 927.408 45.3297 927.479 45.3593C927.55 45.3888 927.614 45.4321 927.669 45.4866C927.723 45.5412 927.766 45.6059 927.795 45.677L929.314 49.3482C929.373 49.4914 929.373 49.6522 929.314 49.7952C929.254 49.9383 929.141 50.0521 928.998 50.1115Z" fill="#3F3D56"/>
<path d="M937.55 30.1316C937.491 29.9884 937.491 29.8276 937.55 29.6845C937.61 29.5415 937.723 29.4277 937.867 29.3683L941.538 27.8491C941.681 27.7898 941.842 27.7899 941.985 27.8492C942.128 27.9086 942.242 28.0224 942.301 28.1656C942.36 28.3087 942.36 28.4696 942.301 28.6127C942.241 28.7559 942.128 28.8696 941.985 28.9289L938.313 30.4481C938.17 30.5071 938.009 30.507 937.866 30.4477C937.723 30.3883 937.609 30.2747 937.55 30.1316Z" fill="white"/>
<path d="M943.813 28.1244C944.135 28.1244 944.397 27.8628 944.397 27.5401C944.397 27.2174 944.135 26.9558 943.813 26.9558C943.49 26.9558 943.229 27.2174 943.229 27.5401C943.229 27.8628 943.49 28.1244 943.813 28.1244Z" fill="white"/>
<path d="M1070.53 287.379C1070.46 287.379 1070.38 287.378 1070.31 287.375C1069.44 287.344 1068.6 287.103 1067.84 286.674C1067.09 286.245 1066.45 285.639 1065.98 284.91C1062.45 279.642 1058.13 274.956 1053.16 271.023C1050.15 268.618 1047 266.382 1043.96 264.219C1036.12 258.642 1028.73 253.39 1024.63 246.132C1015.69 230.306 1026.22 208.263 1041.26 198.377C1058.13 187.29 1080.32 185.551 1101.79 185.323C1104.02 185.299 1106.25 185.287 1108.48 185.288C1147.16 185.302 1185.75 188.831 1223.79 195.831C1236.44 198.165 1249.68 201.024 1260.32 207.961C1270.9 214.858 1277.33 225.718 1276.7 235.631C1275.78 250.101 1260.44 260.913 1246.48 263.74C1233.16 266.432 1219.33 264.613 1204.69 262.686C1201.46 262.261 1198.11 261.821 1194.81 261.439C1158.89 257.287 1091.41 270.084 1088.56 270.631L1085.72 271.173L1074.74 285.315C1074.24 285.959 1073.6 286.481 1072.88 286.839C1072.15 287.197 1071.34 287.382 1070.53 287.379Z" fill="#2CBBBB"/>
<path d="M1230.49 216.789H1078.67C1077.79 216.789 1076.95 216.441 1076.33 215.822C1075.71 215.202 1075.36 214.362 1075.36 213.486C1075.36 212.61 1075.71 211.77 1076.33 211.15C1076.95 210.531 1077.79 210.183 1078.67 210.183H1230.49C1231.36 210.183 1232.2 210.531 1232.82 211.15C1233.44 211.77 1233.79 212.61 1233.79 213.486C1233.79 214.362 1233.44 215.202 1232.82 215.822C1232.2 216.441 1231.36 216.789 1230.49 216.789Z" fill="white"/>
<path d="M1230.49 237.065H1078.67C1077.79 237.065 1076.95 236.717 1076.33 236.099C1075.71 235.48 1075.37 234.641 1075.36 233.765C1075.36 232.89 1075.71 232.05 1076.33 231.43C1076.95 230.81 1077.78 230.461 1078.66 230.459H1230.49C1231.36 230.46 1232.2 230.809 1232.82 231.428C1233.44 232.047 1233.79 232.887 1233.79 233.762C1233.79 234.637 1233.44 235.476 1232.82 236.096C1232.2 236.715 1231.36 237.064 1230.49 237.065Z" fill="white"/>
<path d="M1096.36 257.341H1078.67C1077.79 257.339 1076.95 256.991 1076.33 256.371C1075.72 255.752 1075.37 254.913 1075.37 254.037C1075.37 253.162 1075.72 252.323 1076.33 251.704C1076.95 251.084 1077.79 250.736 1078.67 250.734H1096.36C1097.23 250.736 1098.07 251.084 1098.69 251.704C1099.31 252.323 1099.66 253.162 1099.66 254.037C1099.66 254.913 1099.31 255.752 1098.69 256.371C1098.07 256.991 1097.23 257.339 1096.36 257.341Z" fill="white"/>
<path d="M1072.41 310.409C1081.27 310.409 1088.46 303.22 1088.46 294.352C1088.46 285.484 1081.27 278.295 1072.41 278.295C1063.54 278.295 1056.35 285.484 1056.35 294.352C1056.35 303.22 1063.54 310.409 1072.41 310.409Z" fill="white"/>
<path d="M1072.41 310.605C1069.19 310.605 1066.05 309.652 1063.38 307.866C1060.7 306.08 1058.62 303.542 1057.39 300.572C1056.16 297.602 1055.84 294.334 1056.47 291.182C1057.09 288.029 1058.64 285.133 1060.91 282.86C1063.19 280.587 1066.08 279.039 1069.24 278.412C1072.39 277.785 1075.66 278.106 1078.63 279.337C1081.6 280.567 1084.14 282.65 1085.92 285.323C1087.71 287.995 1088.66 291.138 1088.66 294.352C1088.66 298.661 1086.94 302.792 1083.89 305.839C1080.85 308.886 1076.72 310.6 1072.41 310.605Z" fill="#3F3D56"/>
<path d="M1071.2 300.769C1071.17 300.769 1071.14 300.768 1071.1 300.767C1070.8 300.752 1070.5 300.672 1070.23 300.533C1069.97 300.393 1069.73 300.197 1069.55 299.958L1066.86 296.508C1066.69 296.29 1066.57 296.041 1066.49 295.775C1066.42 295.509 1066.4 295.231 1066.44 294.958C1066.47 294.684 1066.56 294.419 1066.69 294.18C1066.83 293.94 1067.01 293.729 1067.23 293.56L1067.33 293.485C1067.54 293.315 1067.79 293.19 1068.06 293.117C1068.33 293.044 1068.6 293.024 1068.88 293.058C1069.15 293.092 1069.42 293.18 1069.66 293.316C1069.9 293.453 1070.11 293.635 1070.28 293.853C1070.41 294.027 1070.58 294.17 1070.78 294.271C1070.97 294.373 1071.19 294.431 1071.41 294.442C1071.63 294.453 1071.85 294.416 1072.05 294.334C1072.26 294.251 1072.44 294.126 1072.6 293.966L1078.04 288.214C1078.43 287.81 1078.96 287.575 1079.51 287.56C1080.07 287.545 1080.61 287.751 1081.01 288.133L1081.1 288.219C1081.3 288.408 1081.47 288.636 1081.58 288.888C1081.69 289.14 1081.75 289.411 1081.76 289.687C1081.77 289.963 1081.72 290.237 1081.62 290.495C1081.52 290.753 1081.37 290.988 1081.18 291.189L1072.73 300.113C1072.53 300.32 1072.3 300.486 1072.03 300.598C1071.77 300.711 1071.49 300.769 1071.2 300.769Z" fill="white"/>
<path d="M772.593 86.793L762.769 27.7174C762.572 26.5215 762.857 25.2961 763.562 24.31C764.266 23.3239 765.334 22.6577 766.529 22.4576L811.144 15.0386C812.34 14.8412 813.566 15.1261 814.552 15.831C815.538 16.5359 816.204 17.6032 816.404 18.7986L826.228 77.8743C826.425 79.0702 826.14 80.2956 825.435 81.2816C824.73 82.2677 823.663 82.9339 822.468 83.1341L777.853 90.553C776.657 90.7505 775.431 90.4656 774.445 89.7607C773.459 89.0558 772.793 87.9885 772.593 86.793Z" fill="#3F3D56"/>
<path d="M773.048 68.3806L766.732 30.4014C766.547 29.2814 766.814 28.1338 767.474 27.2103C768.134 26.2868 769.134 25.6629 770.253 25.4754L808.596 19.0994C809.716 18.9144 810.864 19.1813 811.788 19.8414C812.711 20.5016 813.335 21.5011 813.523 22.6207L822.264 75.19C822.449 76.31 822.182 77.4577 821.522 78.3811C820.862 79.3046 819.862 79.9285 818.743 80.116L794.99 84.0657C790.001 84.8896 784.889 83.7008 780.775 80.7603C776.662 77.8198 773.883 73.3676 773.048 68.3806Z" fill="white"/>
<path d="M774.702 39.9659C774.522 38.8715 774.782 37.75 775.428 36.8476C776.073 35.9451 777.049 35.3354 778.143 35.1523L804.742 30.7293C805.284 30.6392 805.838 30.6567 806.374 30.7808C806.909 30.905 807.414 31.1333 807.861 31.4528C808.308 31.7724 808.688 32.1768 808.979 32.6431C809.269 33.1093 809.465 33.6283 809.556 34.1703C809.646 34.7123 809.628 35.2668 809.504 35.802C809.38 36.3373 809.152 36.8428 808.832 37.2898C808.513 37.7368 808.108 38.1165 807.642 38.4072C807.176 38.6978 806.657 38.8939 806.115 38.984L779.516 43.4069C778.422 43.5877 777.3 43.3269 776.398 42.6819C775.495 42.0368 774.886 41.06 774.702 39.9659Z" fill="#2CBBBB"/>
<path d="M776.837 52.8066C776.656 51.7121 776.917 50.5906 777.562 49.6882C778.207 48.7857 779.184 48.176 780.278 47.9929L806.877 43.5699C807.971 43.3879 809.093 43.6481 809.996 44.2934C810.899 44.9388 811.508 45.9163 811.69 47.0109C811.872 48.1055 811.612 49.2277 810.967 50.1304C810.322 51.0331 809.344 51.6426 808.249 51.8246L781.651 56.2476C780.556 56.4283 779.435 56.1676 778.533 55.5225C777.63 54.8774 777.02 53.9006 776.837 52.8066Z" fill="#2CBBBB"/>
<path d="M778.973 65.6472C778.792 64.5528 779.053 63.4313 779.698 62.5288C780.343 61.6264 781.32 61.0167 782.414 60.8336L809.012 56.4106C809.554 56.3204 810.109 56.3379 810.644 56.4621C811.179 56.5862 811.685 56.8146 812.132 57.1341C812.579 57.4537 812.959 57.8581 813.249 58.3244C813.54 58.7906 813.736 59.3096 813.826 59.8516C813.916 60.3936 813.899 60.9481 813.775 61.4833C813.65 62.0185 813.422 62.5241 813.103 62.9711C812.783 63.4181 812.379 63.7978 811.912 64.0884C811.446 64.3791 810.927 64.5751 810.385 64.6653L783.787 69.0883C782.692 69.269 781.571 69.0082 780.668 68.3631C779.766 67.718 779.156 66.7413 778.973 65.6472Z" fill="#2CBBBB"/>
<path d="M1005.7 687.598L1006.4 671.698C1013.78 667.757 1022 665.676 1030.36 665.634C1018.85 675.04 1020.29 693.17 1012.49 705.818C1010.03 709.744 1006.71 713.066 1002.79 715.537C998.871 718.008 994.444 719.565 989.84 720.092L980.213 725.987C978.892 718.622 979.183 711.059 981.066 703.818C982.95 696.577 986.38 689.831 991.122 684.044C993.815 680.823 996.902 677.955 1000.31 675.506C1002.62 681.586 1005.7 687.598 1005.7 687.598Z" fill="#F2F2F2"/>
<path d="M714.744 308.284C707.329 308.136 667.504 306.993 660.973 307.274C660.604 305.981 648.223 321.847 647.922 321.945C647.722 322.157 647.575 322.414 647.496 322.695C647.416 322.976 647.405 323.271 647.465 323.557C647.524 323.843 647.652 324.11 647.837 324.335C648.022 324.561 648.259 324.738 648.527 324.853C649.255 325.295 713.459 324.107 714.237 324.262C714.573 324.257 714.901 324.156 715.183 323.973C715.465 323.789 715.69 323.529 715.83 323.224L716.26 322.263C716.304 320.618 716.842 312.215 716.359 310.778C716.478 310.508 716.528 310.213 716.504 309.919C716.48 309.626 716.384 309.342 716.224 309.095C716.064 308.848 715.845 308.644 715.586 308.503C715.328 308.361 715.038 308.286 714.744 308.284Z" fill="#3F3D56"/>
<path opacity="0.17" d="M716.259 322.261C715.882 323.167 715.4 324.304 714.236 324.262L649.204 324.992C648.897 324.989 648.595 324.906 648.329 324.753C648.062 324.599 647.84 324.38 647.683 324.115C647.525 323.851 647.439 323.55 647.431 323.243C647.424 322.935 647.495 322.631 647.639 322.359L716.259 322.261Z" fill="black"/>
<path d="M661.277 307.08C660.577 305.869 643.191 219.841 641.74 219.122L629.87 204.601L628.809 203.803C627.333 202.993 623.794 203.541 624.113 205.794C626.902 219.164 644.839 295.312 645.232 307.184L647.391 322.309C647.429 322.566 647.521 322.812 647.661 323.032C647.801 323.252 647.985 323.44 648.201 323.584C648.418 323.728 648.662 323.825 648.919 323.869C649.175 323.913 649.438 323.902 649.691 323.838C650.309 323.772 650.9 323.545 651.405 323.18C651.909 322.816 652.31 322.326 652.568 321.759C652.73 321.226 662.09 307.389 661.277 307.08Z" fill="#3F3D56"/>
<path opacity="0.17" d="M629.866 204.601L652.569 321.762C651.81 323.684 648.257 325.03 647.43 322.509C647.415 322.506 624.139 205.866 624.115 205.796C623.867 202.989 628.506 202.9 629.866 204.601Z" fill="black"/>
<path d="M630.55 209.392L642.081 225.464L655.023 286.929L649.006 292.177L630.55 209.392Z" fill="#2CBBBB"/>
<path d="M707.301 316.572L710.491 316.702C710.541 315.767 710.695 314.841 710.951 313.942C711.431 311.662 711.861 308.952 709.871 308.962C708.521 308.832 708.061 310.542 707.821 312.402C707.759 313.803 707.585 315.198 707.301 316.572Z" fill="#2F2E41"/>
<path d="M689 312.281L691.15 312.361L692.19 312.401C692.17 311.261 692.7 308.911 691.41 308.331C691.205 308.243 690.983 308.199 690.76 308.202C689.55 308.132 689.19 309.051 689.08 310.111C689.01 310.751 689.04 311.431 689.02 311.961C689.02 312.071 689.01 312.181 689 312.281Z" fill="#2F2E41"/>
<path d="M682.631 312.022L684.791 312.112L685.821 312.152C685.801 310.842 686.491 307.981 684.391 307.942C682.451 307.832 682.701 310.302 682.651 311.702C682.651 311.812 682.641 311.921 682.631 312.022Z" fill="#2F2E41"/>
<path d="M676.261 311.772L678.411 311.852L679.451 311.892C679.431 310.592 680.121 307.732 678.021 307.692C676.081 307.572 676.331 310.042 676.281 311.452C676.281 311.562 676.271 311.672 676.261 311.772Z" fill="#2F2E41"/>
<path d="M669.891 311.512L672.051 311.602L673.081 311.642C673.061 310.332 673.751 307.482 671.651 307.432C669.711 307.322 669.961 309.792 669.911 311.192C669.911 311.301 669.901 311.412 669.891 311.512Z" fill="#2F2E41"/>
<path d="M663.521 311.262L665.671 311.342L666.711 311.382C666.691 310.182 667.27 307.672 665.73 307.242H665.72C665.578 307.199 665.429 307.179 665.281 307.182C665.099 307.165 664.916 307.182 664.741 307.232H664.73C663.39 307.582 663.58 309.682 663.54 310.942C663.541 311.052 663.531 311.162 663.521 311.262Z" fill="#2F2E41"/>
<path d="M700.87 310.582L704.06 310.712C704.06 310.592 704.06 310.462 704.07 310.312C704.149 309.551 704.162 308.785 704.11 308.022C704 307.182 703.64 306.522 702.63 306.502C701.6 306.442 701.19 307.102 701.03 307.952C700.993 308.096 700.966 308.243 700.95 308.392V308.402C700.87 309.182 700.92 310.022 700.87 310.582Z" fill="#2F2E41"/>
<path d="M694.5 310.322L697.69 310.452C697.758 309.593 697.778 308.732 697.75 307.872C697.66 306.992 697.31 306.272 696.26 306.252C695.2 306.182 694.79 306.902 694.63 307.792C694.48 308.652 694.56 309.682 694.5 310.322Z" fill="#2F2E41"/>
<path d="M688.131 310.072L689.081 310.112L691.321 310.202C691.311 309.722 691.401 309.022 691.411 308.332C691.419 308.125 691.413 307.917 691.391 307.712C691.311 306.782 690.981 306.012 689.891 305.992C688.781 305.932 688.391 306.702 688.251 307.642C688.111 308.482 688.191 309.452 688.131 310.072Z" fill="#2F2E41"/>
<path d="M700.931 316.322L704.121 316.442C704.111 315.142 704.791 312.282 702.691 312.242C700.591 312.112 701.051 315.012 700.931 316.322Z" fill="#2F2E41"/>
<path d="M694.561 316.062L697.751 316.192C697.741 314.882 698.421 312.022 696.321 311.982C694.221 311.862 694.681 314.762 694.561 316.062Z" fill="#2F2E41"/>
<path d="M688.19 315.812L691.38 315.932C691.37 315.002 691.72 313.282 691.15 312.362C691.026 312.158 690.849 311.992 690.637 311.881C690.426 311.77 690.189 311.718 689.95 311.732C689.623 311.697 689.294 311.778 689.02 311.962C688 312.632 688.29 314.752 688.19 315.812Z" fill="#2F2E41"/>
<path d="M681.82 315.552L685.01 315.682C685 314.752 685.34 313.042 684.79 312.112C684.666 311.905 684.488 311.736 684.274 311.623C684.061 311.51 683.821 311.458 683.58 311.472C683.253 311.436 682.923 311.517 682.65 311.702C681.63 312.392 681.92 314.502 681.82 315.552Z" fill="#2F2E41"/>
<path d="M675.45 315.302L678.64 315.422C678.63 314.492 678.98 312.772 678.41 311.852C678.286 311.648 678.109 311.482 677.897 311.371C677.686 311.26 677.448 311.208 677.21 311.222C676.883 311.187 676.554 311.268 676.28 311.452C675.26 312.122 675.55 314.242 675.45 315.302Z" fill="#2F2E41"/>
<path d="M669.08 315.042L672.27 315.172C672.26 314.242 672.6 312.532 672.05 311.602C671.927 311.394 671.749 311.224 671.535 311.111C671.322 310.998 671.081 310.947 670.84 310.962C670.513 310.926 670.183 311.007 669.91 311.192C668.89 311.882 669.18 313.992 669.08 315.042Z" fill="#2F2E41"/>
<path d="M662.71 314.792L665.9 314.912C665.89 313.981 666.23 312.272 665.67 311.342C665.547 311.137 665.369 310.97 665.158 310.859C664.946 310.748 664.708 310.697 664.47 310.712C664.143 310.677 663.813 310.758 663.54 310.942C662.52 311.621 662.81 313.731 662.71 314.792Z" fill="#2F2E41"/>
</g>
<path d="M48.75 476.327V346.327C48.75 344.471 49.4875 342.69 50.8003 341.378C52.113 340.065 53.8935 339.327 55.75 339.327C57.6065 339.327 59.387 340.065 60.6997 341.378C62.0125 342.69 62.75 344.471 62.75 346.327V476.327C62.75 478.184 62.0125 479.964 60.6997 481.277C59.387 482.59 57.6065 483.327 55.75 483.327C53.8935 483.327 52.113 482.59 50.8003 481.277C49.4875 479.964 48.75 478.184 48.75 476.327Z" fill="#F0F0F0"/>
<path d="M32 476.327V346.327C32 344.471 32.7375 342.69 34.0503 341.378C35.363 340.065 37.1435 339.327 39 339.327C40.8565 339.327 42.637 340.065 43.9497 341.378C45.2625 342.69 46 344.471 46 346.327V476.327C46 478.184 45.2625 479.964 43.9497 481.277C42.637 482.59 40.8565 483.327 39 483.327C37.1435 483.327 35.363 482.59 34.0503 481.277C32.7375 479.964 32 478.184 32 476.327Z" fill="#F0F0F0"/>
<path d="M15.25 476.327V346.327C15.25 344.471 15.9875 342.69 17.3003 341.378C18.613 340.065 20.3935 339.327 22.25 339.327C24.1065 339.327 25.887 340.065 27.1997 341.378C28.5125 342.69 29.25 344.471 29.25 346.327V476.327C29.25 478.184 28.5125 479.964 27.1997 481.277C25.887 482.59 24.1065 483.327 22.25 483.327C20.3935 483.327 18.613 482.59 17.3003 481.277C15.9875 479.964 15.25 478.184 15.25 476.327Z" fill="#F0F0F0"/>
<path d="M647.654 683.964C644.835 683.966 642.037 683.48 639.383 682.528L638.974 682.381L639.163 681.475C634.411 671.875 636.072 658.722 643.416 647.908C650.092 638.077 660.245 630.929 669.202 624.624C670.338 623.824 671.688 623.382 673.078 623.356C674.467 623.329 675.833 623.719 677 624.474C678.166 625.23 679.08 626.318 679.623 627.597C680.167 628.876 680.315 630.289 680.049 631.653L676.846 648.087C674.535 659.942 671.785 671.163 663.629 678.16C659.15 681.908 653.495 683.962 647.654 683.964Z" fill="#E6E6E6"/>
<path d="M668.631 712.361C665.528 712.343 662.48 711.55 659.762 710.054C657.044 708.558 654.743 706.407 653.067 703.796L652.835 703.434L653.389 702.946C654.821 695.128 661.562 688.162 670.611 685.166C678.837 682.443 687.917 682.888 695.923 683.28C696.981 683.331 698 683.696 698.85 684.327C699.701 684.958 700.345 685.828 700.701 686.825C701.057 687.823 701.109 688.904 700.85 689.931C700.591 690.958 700.033 691.885 699.246 692.594L690.238 700.725C683.692 706.632 677.164 711.966 669.289 712.348C669.069 712.357 668.85 712.361 668.631 712.361Z" fill="#E6E6E6"/>
<path d="M640.676 721.053C639.345 711.148 637.978 701.115 638.911 691.104C639.739 682.212 642.393 673.528 647.795 666.408C650.649 662.647 654.138 659.415 658.105 656.856C659.136 656.191 660.085 657.861 659.059 658.524C652.182 662.988 646.892 669.512 643.947 677.164C640.657 685.719 640.128 695.044 640.695 704.132C641.038 709.627 641.765 715.087 642.497 720.54C642.556 720.784 642.521 721.042 642.399 721.262C642.277 721.482 642.076 721.648 641.837 721.727C641.717 721.76 641.591 721.768 641.467 721.751C641.344 721.735 641.224 721.694 641.116 721.631C641.009 721.569 640.914 721.485 640.838 721.386C640.763 721.287 640.707 721.174 640.676 721.053Z" fill="#F2F2F2"/>
<path d="M636.916 726.747C643.319 715.166 650.745 702.294 664.015 698.18C667.7 697.041 671.572 696.632 675.413 696.977C676.623 697.084 676.321 698.991 675.113 698.884C668.661 698.343 662.223 700.084 656.924 703.804C651.795 707.373 647.801 712.334 644.422 717.596C642.351 720.819 640.497 724.178 638.642 727.534C638.049 728.606 636.317 727.832 636.916 726.747Z" fill="#F2F2F2"/>
<path d="M634.035 726.578L640.5 726.725L601.52 518.488L595.055 519.706L605.234 573.725H572.44L582.619 519.706L576.155 518.488L537.5 726.725L543.639 726.578L563.961 618.725H613.713L634.035 726.578ZM565.469 610.725L570.933 581.725H606.741L612.206 610.725H565.469Z" fill="#CACACA"/>
<path d="M351.75 479.644V411.259C351.75 409.228 354.89 407.577 358.75 407.577C362.61 407.577 365.75 409.228 365.75 411.259V479.644C365.75 481.675 362.61 483.327 358.75 483.327C354.89 483.327 351.75 481.675 351.75 479.644Z" fill="#F0F0F0"/>
<path d="M335 479.644V411.259C335 409.228 338.14 407.577 342 407.577C345.86 407.577 349 409.228 349 411.259V479.644C349 481.675 345.86 483.327 342 483.327C338.14 483.327 335 481.675 335 479.644Z" fill="#F0F0F0"/>
<path d="M318.25 479.644V411.259C318.25 409.228 321.39 407.577 325.25 407.577C329.11 407.577 332.25 409.228 332.25 411.259V479.644C332.25 481.675 329.11 483.327 325.25 483.327C321.39 483.327 318.25 481.675 318.25 479.644Z" fill="#F0F0F0"/>
<path d="M459.164 429.354C459.133 429.146 459.058 428.947 458.945 428.77C458.832 428.593 458.683 428.441 458.508 428.325L405.735 393.487C406.53 393.155 407.195 392.572 407.629 391.827C408.156 390.908 408.298 389.817 408.024 388.793C407.75 387.77 407.081 386.896 406.165 386.363L401.835 383.863C400.915 383.336 399.825 383.194 398.801 383.468C397.777 383.743 396.904 384.411 396.371 385.327C396.083 385.831 395.91 386.392 395.864 386.97L357.77 361.822C356.491 358.723 354.552 355.941 352.087 353.669C349.622 351.397 346.692 349.69 343.5 348.666V337.577H329.5V348.666C324.855 350.151 320.802 353.074 317.926 357.012C315.051 360.951 313.501 365.701 313.5 370.577V373.577H327.5C327.5 375.964 328.448 378.254 330.136 379.941C331.824 381.629 334.113 382.577 336.5 382.577C338.887 382.577 341.176 381.629 342.864 379.941C344.552 378.254 345.5 375.964 345.5 373.577H359.5V370.577C359.499 369.139 359.363 367.704 359.095 366.292L455.464 429.911L415.433 478.582C415.122 478.58 414.813 478.577 414.5 478.577C411.306 478.577 408.211 478.653 405.263 478.783C405.441 478.289 405.518 477.764 405.491 477.239C405.433 476.181 404.958 475.189 404.171 474.479C403.383 473.77 402.347 473.401 401.289 473.453L396.295 473.713C395.237 473.771 394.245 474.246 393.535 475.033C392.826 475.821 392.457 476.857 392.509 477.916C392.546 478.541 392.732 479.149 393.051 479.688C384.222 480.626 378.5 481.919 378.5 482.577C378.5 483.656 393.863 482.629 413.092 482.58C413.18 482.83 413.334 483.052 413.536 483.223C413.738 483.395 413.983 483.509 414.244 483.555C414.505 483.601 414.773 483.576 415.022 483.484C415.271 483.392 415.49 483.235 415.658 483.03L416.029 482.58C435.201 482.633 450.5 483.653 450.5 482.577C450.5 481.563 436.898 479.039 419.274 478.634L458.84 430.53C458.973 430.368 459.071 430.179 459.127 429.976C459.183 429.774 459.195 429.562 459.164 429.354Z" fill="#CCCCCC"/>
<path d="M460.607 727.078H337.392C334.902 727.075 332.514 726.084 330.754 724.323C328.993 722.563 328.003 720.175 328 717.685V515.469C327.997 513.244 327.112 511.111 325.539 509.538C323.966 507.965 321.833 507.08 319.608 507.078H31.3921C29.1672 507.08 27.0341 507.965 25.4608 509.538C23.8876 511.111 23.0026 513.244 23 515.469V717.685C22.9971 720.175 22.0067 722.563 20.246 724.323C18.4853 726.084 16.098 727.075 13.6079 727.078H9.39209C6.90198 727.075 4.5147 726.084 2.75397 724.323C0.993236 722.563 0.00283174 720.175 0 717.685V504.578C0.00667789 498.612 2.37935 492.893 6.59747 488.675C10.8156 484.457 16.5347 482.084 22.5 482.078H447.5C453.465 482.085 459.184 484.457 463.402 488.675C467.621 492.893 469.993 498.612 470 504.578V717.685C469.997 720.175 469.007 722.563 467.246 724.323C465.485 726.084 463.098 727.075 460.607 727.078Z" fill="#E4E4E4"/>
<path d="M469.5 534.578H328.5V540.578H469.5V534.578Z" fill="white"/>
<path d="M469.5 615.578H328.5V621.578H469.5V615.578Z" fill="white"/>
<path d="M211.784 481.09L207.731 479.384L204.951 459.069H167.931L164.918 479.301L161.292 481.113C161.119 481.2 160.98 481.343 160.898 481.519C160.815 481.694 160.795 481.893 160.839 482.081C160.884 482.27 160.991 482.438 161.143 482.559C161.295 482.679 161.483 482.744 161.677 482.744H211.45C211.648 482.744 211.841 482.676 211.995 482.55C212.149 482.424 212.254 482.249 212.294 482.054C212.333 481.859 212.304 481.657 212.211 481.481C212.118 481.305 211.967 481.167 211.784 481.09Z" fill="#E6E6E6"/>
<path d="M277.571 461.772H95.7178C94.7637 461.769 93.8494 461.389 93.1754 460.713C92.5015 460.038 92.1231 459.123 92.123 458.169V432.525H281.166V458.169C281.166 459.123 280.788 460.038 280.114 460.713C279.44 461.389 278.526 461.769 277.571 461.772Z" fill="#CCCCCC"/>
<path d="M281.356 444.645H91.957V334.921C91.9584 333.769 92.4164 332.665 93.2306 331.851C94.0449 331.037 95.1488 330.579 96.3003 330.577H277.013C278.164 330.579 279.268 331.037 280.083 331.851C280.897 332.665 281.355 333.769 281.356 334.921V444.645Z" fill="#3F3D56"/>
<path d="M270.043 436.681H103.268C102.381 436.68 101.529 436.327 100.902 435.699C100.274 435.072 99.9209 434.22 99.9199 433.333V341.889C99.9209 341.002 100.274 340.151 100.902 339.523C101.529 338.895 102.381 338.542 103.268 338.541H270.043C270.931 338.542 271.782 338.895 272.41 339.523C273.038 340.151 273.391 341.002 273.392 341.889V433.333C273.391 434.22 273.038 435.072 272.41 435.699C271.782 436.327 270.931 436.68 270.043 436.681Z" fill="white"/>
<path d="M457.001 349.039C458.596 348.809 460.223 348.931 461.766 349.398C463.308 349.865 464.73 350.664 465.93 351.74C467.131 352.815 468.081 354.141 468.714 355.623C469.346 357.106 469.646 358.709 469.593 360.32L506.158 374.394L489.591 386.23L457.408 371.05C454.708 370.781 452.201 369.53 450.361 367.534C448.522 365.539 447.478 362.939 447.428 360.225C447.377 357.512 448.324 354.875 450.089 352.813C451.853 350.751 454.313 349.408 457.001 349.039Z" fill="#9E616A"/>
<path d="M595.839 342.13L602.025 353.376C600.531 360.51 596.667 366.928 591.063 371.587C581.592 379.575 532.071 409.324 532.071 409.324L469.554 377.938L480.49 363.405L529.572 379.854C547.78 362.661 569.752 349.959 593.737 342.761L595.839 342.13Z" fill="#E4E4E4"/>
<path d="M584.336 528.234C611.283 528.234 633.127 521.116 633.127 512.336C633.127 503.556 611.283 496.438 584.336 496.438C557.39 496.438 535.546 503.556 535.546 512.336C535.546 521.116 557.39 528.234 584.336 528.234Z" fill="#CACACA"/>
<path d="M474.879 713.105L461.923 709.524L469.571 657.846L488.693 663.133L474.879 713.105Z" fill="#9E616A"/>
<path d="M474.712 726.577L432.937 715.029L433.083 714.501C434.275 710.189 437.131 706.526 441.023 704.32C444.915 702.114 449.525 701.543 453.837 702.735L453.838 702.735L479.353 709.789L474.712 726.577Z" fill="#2F2E41"/>
<path d="M437.316 713.273L425.019 707.843L440.111 657.831L458.259 665.844L437.316 713.273Z" fill="#9E616A"/>
<path d="M435.188 726.578L395.539 709.07L395.76 708.568C397.568 704.475 400.927 701.268 405.099 699.652C409.271 698.036 413.914 698.143 418.007 699.95L418.008 699.95L442.224 710.643L435.188 726.578Z" fill="#2F2E41"/>
<path d="M622.308 473.467C622.308 473.467 628.826 493.66 588.837 519.197L537.336 570.516L483.823 698.522L452.054 684.279L458.285 667.647L462.466 656.486L464.605 650.777L466.898 644.656L500.91 553.869L529.48 503.846L530.308 476.703L537.336 457.569L588.319 439.478L622.308 473.467Z" fill="#2F2E41"/>
<path d="M596.308 474.467C596.308 474.467 602.826 494.66 562.837 520.197L511.336 571.516L457.823 699.522L426.054 685.279L432.285 668.647L436.466 657.486L438.605 651.777L440.898 645.656L474.91 554.869L484.476 538.12C497.095 516.024 512.43 495.594 530.122 477.305L539.5 467.611L540.5 452.611L562.319 440.478L596.308 474.467Z" fill="#2F2E41"/>
<path d="M565.5 375.611L581.5 341.611L609.422 337.802C609.422 337.802 631.224 365.579 625.5 404.611C623.353 419.248 621.604 433.82 621.5 446.611C621.472 450.015 624.45 451.534 624.5 454.611C624.549 457.634 618.857 462.557 620.5 464.611C622.85 467.442 624.249 470.941 624.5 474.611C622.519 479.327 562.544 453.777 537.336 457.569L565.5 375.611Z" fill="#E4E4E4"/>
<path d="M605.158 320.685C612.285 308.696 608.343 293.199 596.354 286.072C584.364 278.945 568.867 282.887 561.741 294.876C554.614 306.866 558.555 322.362 570.545 329.489C582.534 336.616 598.031 332.675 605.158 320.685Z" fill="#9E616A"/>
<path d="M599.595 298.713C599.547 299.378 599.48 300.258 599.403 301.253C599.324 303.979 600.092 306.662 601.602 308.933C603.014 311.323 601.328 325.754 601.328 325.754C642.697 296.918 610.01 267.947 597.223 270.522C597.49 266.855 587.062 268.308 587.062 268.308C583.089 262.12 574.38 270.334 574.38 270.334L576.061 267.507C569.3 269.227 562.617 290.122 562.617 290.122C564.91 299.137 599.862 295.046 599.595 298.713Z" fill="#2F2E41"/>
<path d="M439.115 388.986C453.331 370.077 464.568 349.104 472.438 326.795C472.894 325.461 472.862 324.008 472.347 322.695C471.832 321.382 470.868 320.295 469.626 319.626L420.981 293.561C420.194 293.136 419.32 292.896 418.427 292.86C417.533 292.824 416.643 292.992 415.824 293.352C414.99 293.714 414.25 294.262 413.659 294.954C413.069 295.645 412.644 296.463 412.417 297.343C406.755 318.841 396.113 338.704 381.35 355.325C380.742 356.002 380.297 356.808 380.048 357.683C379.799 358.557 379.753 359.477 379.913 360.373C380.067 361.253 380.42 362.088 380.945 362.812C381.47 363.536 382.154 364.13 382.943 364.55L431.589 390.615C432.833 391.279 434.272 391.479 435.651 391.181C437.029 390.882 438.257 390.105 439.115 388.986Z" fill="#CCCCCC"/>
<path d="M435.796 386.492C435.534 386.818 435.166 387.043 434.756 387.128C434.347 387.212 433.92 387.151 433.55 386.955L384.905 360.889C384.669 360.766 384.464 360.59 384.307 360.375C384.151 360.159 384.046 359.911 384.001 359.648C383.951 359.371 383.965 359.085 384.043 358.814C384.121 358.544 384.261 358.295 384.451 358.087C399.649 340.976 410.606 320.528 416.434 298.396C416.502 298.123 416.631 297.869 416.813 297.654C416.995 297.439 417.225 297.269 417.483 297.158C417.727 297.049 417.993 296.998 418.259 297.009C418.526 297.02 418.786 297.093 419.02 297.221L467.665 323.286C468.033 323.485 468.321 323.807 468.477 324.195C468.634 324.584 468.65 325.015 468.522 325.414C460.793 347.324 449.757 367.921 435.796 386.492Z" fill="white"/>
<path d="M418.776 321.986L452.329 341.652C455.667 343.608 458.69 338.424 455.357 336.471L421.805 316.805C418.466 314.848 415.443 320.032 418.776 321.986Z" fill="#2CBBBB"/>
<path d="M412.776 332.986L446.329 352.652C449.667 354.608 452.69 349.424 449.357 347.471L415.805 327.805C412.466 325.848 409.443 331.032 412.776 332.986Z" fill="#2CBBBB"/>
<path d="M405.776 344.986L439.329 364.652C442.667 366.608 445.69 361.424 442.357 359.471L408.805 339.805C405.466 337.848 402.443 343.032 405.776 344.986Z" fill="#2CBBBB"/>
<path d="M398.776 354.986L432.329 374.652C435.667 376.608 438.69 371.424 435.357 369.471L401.805 349.805C398.466 347.848 395.443 353.032 398.776 354.986Z" fill="#2CBBBB"/>
<path d="M551.732 470.664L564.328 498.989C564.632 499.667 564.762 500.411 564.706 501.152C564.651 501.892 564.411 502.608 564.009 503.233C563.536 503.98 562.853 504.57 562.045 504.93C561.237 505.289 560.341 505.401 559.469 505.252C559.172 505.207 558.881 505.129 558.601 505.02C557.488 504.59 556.59 503.737 556.105 502.646L543.508 474.321C543.268 473.781 543.137 473.199 543.122 472.608C543.106 472.017 543.208 471.43 543.42 470.878C543.848 469.764 544.701 468.866 545.792 468.381C546.882 467.896 548.121 467.864 549.235 468.292C550.349 468.72 551.247 469.573 551.732 470.664Z" fill="#2CBBBB"/>
<path d="M563.312 496.705L565.836 502.422L567.126 510.527C567.212 511.06 567.118 511.607 566.861 512.082C566.603 512.557 566.196 512.934 565.702 513.153C565.208 513.373 564.656 513.423 564.13 513.296C563.605 513.169 563.137 512.872 562.798 512.452L557.576 505.954L555.089 500.362L563.312 496.705Z" fill="#3F3D56"/>
<path d="M540.709 462.783L542.514 474.123C542.573 474.495 542.717 474.847 542.934 475.154C543.151 475.461 543.436 475.714 543.766 475.894C544.097 476.073 544.464 476.174 544.84 476.189C545.215 476.203 545.589 476.132 545.933 475.979L547.722 475.183L551.176 482.95C551.284 483.192 551.484 483.381 551.731 483.476C551.979 483.571 552.253 483.563 552.496 483.456C552.738 483.348 552.927 483.149 553.022 482.901C553.118 482.654 553.111 482.379 553.004 482.137L549.55 474.37L551.339 473.575C551.933 473.31 552.397 472.822 552.631 472.216C552.865 471.61 552.849 470.937 552.588 470.342C552.5 470.145 552.387 469.961 552.251 469.793L545.04 460.858C544.7 460.437 544.231 460.141 543.706 460.014C543.181 459.887 542.628 459.938 542.135 460.157C541.641 460.377 541.234 460.753 540.976 461.228C540.718 461.703 540.624 462.25 540.709 462.783Z" fill="#3F3D56"/>
<path d="M545.934 483.252C546.218 481.665 546.846 480.16 547.775 478.842C548.703 477.525 549.909 476.427 551.308 475.626C552.707 474.825 554.264 474.34 555.87 474.206C557.477 474.072 559.093 474.292 560.605 474.85L585.471 444.572L591.492 464.021L566.956 489.792C565.85 492.27 563.873 494.256 561.401 495.375C558.928 496.493 556.131 496.665 553.54 495.859C550.949 495.053 548.743 493.324 547.342 491C545.94 488.677 545.439 485.92 545.934 483.252Z" fill="#9E616A"/>
<path d="M577.239 481.284L566.287 465.465L597.386 423.999L581.365 389.669L582.532 348.834L595.771 346.389L595.935 346.471C602.371 350.176 607.346 355.971 610.034 362.894C613.337 371.15 620.709 402.144 624.81 419.884C625.616 423.322 625.528 426.909 624.554 430.303C623.581 433.697 621.755 436.785 619.25 439.273L577.239 481.284Z" fill="#E4E4E4"/>
<path d="M268.876 404.846C268.785 405.614 268.755 406.388 268.785 407.161L212.712 447.955L197.308 441.138L183.98 463.041L210.078 477.76C212.187 478.95 214.624 479.423 217.024 479.109C219.424 478.795 221.658 477.711 223.389 476.019L279.825 420.896C282.713 421.63 285.757 421.467 288.551 420.429C291.345 419.391 293.757 417.527 295.465 415.085C297.174 412.643 298.098 409.738 298.116 406.758C298.134 403.777 297.244 400.862 295.564 398.4C293.884 395.938 291.495 394.045 288.714 392.974C285.932 391.903 282.891 391.704 279.993 392.404C277.096 393.104 274.481 394.669 272.495 396.891C270.509 399.114 269.247 401.888 268.876 404.846Z" fill="#FFB6B6"/>
<path d="M210.899 449.447L194.547 476.695C194.082 477.47 193.455 478.136 192.709 478.647C191.963 479.158 191.116 479.502 190.225 479.657C189.334 479.811 188.421 479.771 187.546 479.54C186.672 479.31 185.858 478.893 185.159 478.319L160.676 458.212C156.724 455.809 153.886 451.936 152.784 447.444C151.682 442.952 152.407 438.206 154.799 434.246C157.19 430.287 161.054 427.438 165.544 426.323C170.033 425.208 174.781 425.919 178.747 428.299L207.917 440.398C208.752 440.745 209.502 441.267 210.117 441.93C210.732 442.593 211.197 443.381 211.48 444.239C211.763 445.098 211.857 446.008 211.757 446.906C211.657 447.805 211.364 448.671 210.899 449.447Z" fill="#2CBBBB"/>
<path d="M140.836 686.283H172.889V633.167H140.836V686.283Z" fill="#CACACA"/>
<path d="M171.283 661.273L167.169 667.336L244.095 719.535L248.209 713.473L171.283 661.273Z" fill="#CACACA"/>
<path d="M142.442 661.273L65.5166 713.473L69.6305 719.535L146.556 667.336L142.442 661.273Z" fill="#CACACA"/>
<path d="M246.152 726.577C251.715 726.577 256.225 722.067 256.225 716.504C256.225 710.94 251.715 706.43 246.152 706.43C240.588 706.43 236.078 710.94 236.078 716.504C236.078 722.067 240.588 726.577 246.152 726.577Z" fill="#CACACA"/>
<path d="M156.405 726.577C161.968 726.577 166.478 722.067 166.478 716.504C166.478 710.94 161.968 706.43 156.405 706.43C150.841 706.43 146.331 710.94 146.331 716.504C146.331 722.067 150.841 726.577 156.405 726.577Z" fill="#CACACA"/>
<path d="M67.5736 726.577C73.1371 726.577 77.6473 722.067 77.6473 716.504C77.6473 710.94 73.1371 706.43 67.5736 706.43C62.0101 706.43 57.5 710.94 57.5 716.504C57.5 722.067 62.0101 726.577 67.5736 726.577Z" fill="#CACACA"/>
<path d="M160.067 664.304H152.741V716.504H160.067V664.304Z" fill="#CACACA"/>
<path d="M149.994 656.978H163.73V586.462H149.994V656.978Z" fill="#CACACA"/>
<path d="M117.483 597.452V580.968C117.487 577.933 118.694 575.023 120.84 572.877C122.986 570.731 125.896 569.524 128.931 569.52H190.288C193.323 569.524 196.233 570.731 198.379 572.877C200.525 575.023 201.732 577.933 201.736 580.968V597.452C201.732 600.487 200.525 603.396 198.379 605.543C196.233 607.689 193.323 608.896 190.288 608.899H128.931C125.896 608.896 122.986 607.689 120.84 605.543C118.694 603.396 117.487 600.487 117.483 597.452Z" fill="#3F3D56"/>
<path d="M228.303 710.129L245.271 710.128L253.345 666.117L228.301 666.118L228.303 710.129Z" fill="#FFB8B8"/>
<path d="M223.976 726.578L278.691 726.576V725.883C278.691 723.087 278.14 720.317 277.07 717.734C276 715.15 274.431 712.802 272.453 710.825C270.476 708.847 268.128 707.278 265.544 706.208C262.961 705.138 260.191 704.587 257.395 704.587H257.393L223.975 704.588L223.976 726.578Z" fill="#2F2E41"/>
<path d="M253.684 682.837L287.513 606.976C290.337 600.583 290.65 593.36 288.388 586.746C286.126 580.132 281.455 574.613 275.307 571.288L201.93 531.941L168.446 529.093L137.56 526.285L137.338 526.662C137.053 527.143 130.412 538.614 134.901 551.191C138.306 560.731 147.163 568.183 161.225 573.34C194.049 585.375 231.966 595.662 246.745 599.525C247.398 599.692 248.008 599.995 248.536 600.415C249.063 600.835 249.496 601.361 249.806 601.96C250.116 602.552 250.3 603.202 250.347 603.869C250.393 604.536 250.302 605.205 250.077 605.834L218.649 676.445C218.32 677.34 218.202 678.299 218.303 679.248C218.404 680.196 218.722 681.109 219.231 681.915C219.74 682.721 220.428 683.4 221.241 683.899C222.055 684.397 222.971 684.702 223.921 684.79L247.405 686.5C247.604 686.519 247.803 686.528 248 686.528C249.203 686.528 250.38 686.179 251.389 685.524C252.397 684.869 253.194 683.936 253.684 682.837Z" fill="#2F2E41"/>
<path d="M217.23 710.129L234.199 710.128L242.272 666.117L217.229 666.118L217.23 710.129Z" fill="#FFB8B8"/>
<path d="M212.902 726.578L267.617 726.576V725.883C267.618 723.087 267.067 720.317 265.996 717.734C264.926 715.15 263.358 712.802 261.38 710.825C259.403 708.847 257.055 707.278 254.471 706.208C251.887 705.138 249.118 704.587 246.322 704.587H246.319L212.901 704.588L212.902 726.578Z" fill="#2F2E41"/>
<path d="M241.226 686.989L275.055 611.129C277.88 604.735 278.192 597.512 275.93 590.898C273.668 584.284 268.998 578.765 262.849 575.44L189.472 536.093L155.989 533.245L131.797 531.146L131.8 530.815C131.516 531.296 124.875 542.766 129.364 555.344C132.769 564.884 134.705 572.336 148.767 577.492C181.591 589.528 219.509 599.814 234.287 603.677C234.94 603.844 235.551 604.147 236.078 604.567C236.606 604.987 237.038 605.514 237.348 606.113C237.658 606.705 237.842 607.355 237.889 608.021C237.936 608.688 237.844 609.357 237.619 609.987L206.191 680.597C205.863 681.493 205.744 682.452 205.845 683.4C205.946 684.349 206.264 685.261 206.773 686.067C207.283 686.874 207.971 687.552 208.784 688.051C209.597 688.549 210.514 688.854 211.463 688.942L234.947 690.652C235.147 690.671 235.345 690.681 235.543 690.681C236.745 690.68 237.922 690.331 238.931 689.676C239.939 689.021 240.737 688.088 241.226 686.989Z" fill="#2F2E41"/>
<path d="M220.006 360.239C224.349 341.973 213.063 323.644 194.798 319.3C176.532 314.957 158.203 326.243 153.859 344.508C149.516 362.774 160.801 381.103 179.067 385.447C197.333 389.79 215.662 378.505 220.006 360.239Z" fill="#FFB8B8"/>
<path d="M304.115 482.986C318.331 464.077 329.568 443.104 337.438 420.795C337.894 419.461 337.862 418.008 337.347 416.695C336.832 415.382 335.868 414.295 334.626 413.626L285.981 387.561C285.194 387.136 284.32 386.896 283.427 386.86C282.533 386.824 281.643 386.992 280.824 387.352C279.99 387.714 279.25 388.262 278.659 388.954C278.069 389.645 277.644 390.463 277.417 391.343C271.755 412.841 261.113 432.704 246.35 449.325C245.742 450.002 245.297 450.808 245.048 451.683C244.799 452.557 244.753 453.477 244.913 454.373C245.067 455.253 245.42 456.088 245.945 456.812C246.47 457.536 247.154 458.13 247.943 458.55L296.589 484.615C297.833 485.279 299.272 485.479 300.651 485.181C302.029 484.882 303.257 484.105 304.115 482.986Z" fill="#CCCCCC"/>
<path d="M300.796 480.492C300.534 480.818 300.166 481.043 299.756 481.128C299.347 481.212 298.92 481.151 298.55 480.955L249.905 454.889C249.669 454.766 249.464 454.59 249.307 454.375C249.151 454.159 249.046 453.911 249.001 453.648C248.951 453.371 248.965 453.085 249.043 452.814C249.121 452.544 249.261 452.295 249.451 452.087C264.649 434.976 275.606 414.528 281.434 392.396C281.502 392.123 281.631 391.869 281.813 391.654C281.995 391.439 282.225 391.269 282.483 391.158C282.727 391.049 282.993 390.998 283.259 391.009C283.526 391.02 283.786 391.093 284.02 391.221L332.665 417.286C333.033 417.485 333.321 417.807 333.477 418.195C333.634 418.584 333.65 419.015 333.522 419.414C325.793 441.324 314.757 461.921 300.796 480.492Z" fill="white"/>
<path d="M283.776 415.986L317.329 435.652C320.667 437.608 323.69 432.424 320.357 430.471L286.805 410.805C283.466 408.848 280.443 414.032 283.776 415.986Z" fill="#CCCCCC"/>
<path d="M277.776 426.986L311.329 446.652C314.667 448.608 317.69 443.424 314.357 441.471L280.805 421.805C277.466 419.848 274.443 425.032 277.776 426.986Z" fill="#CCCCCC"/>
<path d="M273.063 437.943L303.577 456.057C306.613 457.86 309.86 454.134 306.829 452.334L276.315 434.219C273.279 432.417 270.032 436.143 273.063 437.943Z" fill="#CCCCCC"/>
<path d="M263.776 448.986L297.329 468.652C300.667 470.608 303.69 465.424 300.357 463.471L266.805 443.805C263.466 441.848 260.443 447.032 263.776 448.986Z" fill="#CCCCCC"/>
<path d="M206.534 534.694L139.26 534.292L139.241 533.813C137.959 500.059 142.084 469.483 151.853 440.339C151.991 439.248 152.14 438.082 152.287 436.937C153.956 423.898 155.281 413.546 167.68 409.69C166.647 408.317 166.038 406.671 165.928 404.956C165.85 403.816 165.999 402.672 166.367 401.59C166.736 400.509 167.315 399.511 168.073 398.656C168.798 397.83 169.679 397.157 170.667 396.675C171.655 396.193 172.728 395.912 173.825 395.849L197.771 395.034C199.029 395.026 200.254 395.441 201.247 396.213C203.07 397.567 204.352 399.526 204.862 401.739C205.372 403.952 205.077 406.274 204.031 408.29C203.749 408.851 203.641 409.107 203.6 409.219C204.451 413.679 206.977 418.976 209.65 424.583C213.477 432.61 217.814 441.708 218.93 451.441C219.532 456.697 219.282 462.015 218.188 467.19C217.689 469.979 217.574 472.823 217.847 475.643C218.066 479.825 218.272 483.773 215.908 487.592C215.306 488.627 214.616 489.73 213.808 490.953L210.483 498.901L206.534 534.694Z" fill="#2CBBBB"/>
<path d="M105.578 581.931V444.469C105.583 439.99 107.365 435.695 110.532 432.528C113.7 429.361 117.994 427.579 122.473 427.574H127.146C131.625 427.579 135.92 429.361 139.087 432.528C142.254 435.695 144.036 439.99 144.041 444.469V581.931C144.036 586.41 142.254 590.704 139.087 593.872C135.92 597.039 131.625 598.82 127.146 598.826H122.473C117.994 598.82 113.7 597.039 110.532 593.872C107.365 590.704 105.583 586.41 105.578 581.931Z" fill="#3F3D56"/>
<path d="M285.983 458.189C285.5 458.793 285.065 459.435 284.683 460.108L215.525 465.157L206.04 451.236L183.159 462.804L197.556 489.082C198.719 491.204 200.539 492.893 202.743 493.893C204.947 494.893 207.416 495.152 209.78 494.629L286.81 477.6C288.876 479.749 291.547 481.217 294.468 481.81C297.388 482.403 300.421 482.093 303.161 480.921C305.901 479.748 308.22 477.769 309.808 475.247C311.396 472.725 312.179 469.779 312.052 466.802C311.925 463.824 310.895 460.955 309.098 458.577C307.301 456.199 304.823 454.425 301.993 453.49C299.162 452.555 296.115 452.504 293.255 453.343C290.395 454.182 287.859 455.873 285.983 458.189Z" fill="#FFB6B6"/>
<path d="M213.198 465.467L184.927 479.978C184.123 480.391 183.239 480.626 182.335 480.666C181.432 480.706 180.531 480.552 179.693 480.212C178.855 479.873 178.099 479.357 177.479 478.7C176.858 478.042 176.386 477.259 176.096 476.403L165.915 446.401C163.828 442.283 163.456 437.505 164.882 433.113C166.307 428.721 169.414 425.073 173.523 422.966C160.991 429.398 187.091 411.126 197.053 430.533L215.441 456.207C215.968 456.942 216.329 457.782 216.502 458.67C216.674 459.557 216.653 460.472 216.44 461.35C216.227 462.229 215.827 463.052 215.268 463.762C214.709 464.472 214.003 465.054 213.198 465.467Z" fill="#2CBBBB"/>
<path d="M171.576 385.438C169.529 385.438 167.272 384.452 164.726 382.454C157.236 376.573 151.882 368.396 149.486 359.179C147.09 349.962 147.783 340.213 151.461 331.429C153.312 327.008 156.773 320.999 162.753 317.478C167.052 314.947 172.102 314.033 176.498 313.375C180.304 312.805 184.157 312.351 187.951 312.027C192.485 311.64 197.721 311.378 202.497 313.192C205.996 314.522 208.975 316.871 211.855 319.143C212.859 319.934 213.897 320.753 214.937 321.511C217.457 323.476 220.363 324.887 223.465 325.652C224.12 325.788 224.738 326.063 225.277 326.458C225.816 326.853 226.265 327.359 226.591 327.942C226.925 328.535 227.127 329.193 227.185 329.87C227.242 330.548 227.154 331.23 226.925 331.871C226.476 333.131 226.07 334.266 226.891 335.497C227.195 335.93 227.6 336.283 228.072 336.523C228.544 336.764 229.067 336.885 229.597 336.876C229.876 336.871 230.152 336.937 230.4 337.066C230.648 337.195 230.859 337.384 231.015 337.616C231.174 337.846 231.273 338.111 231.306 338.388C231.338 338.665 231.302 338.946 231.201 339.206L231.069 339.545C231.421 339.578 231.76 339.695 232.056 339.888C232.352 340.081 232.597 340.343 232.77 340.651C233.027 341.09 233.126 341.604 233.051 342.107C232.976 342.611 232.732 343.073 232.359 343.419C229.325 346.307 225.543 348.286 221.441 349.133C218.634 349.683 215.747 349.677 212.942 349.113L212.491 349.025L212.547 348.525C201.203 344.479 190.963 351.346 185.125 359.195L184.282 358.663C184.427 358.37 184.511 358.052 184.529 357.726C184.548 357.4 184.5 357.074 184.389 356.767C184.271 356.398 184.082 356.056 183.833 355.761C183.583 355.466 183.277 355.223 182.933 355.046C182.238 354.759 181.474 354.685 180.736 354.832C179.999 354.979 179.321 355.341 178.789 355.873C178.248 356.441 177.83 357.115 177.563 357.853C177.296 358.591 177.186 359.376 177.24 360.159C177.393 361.818 177.816 363.441 178.491 364.965C178.766 365.693 179.049 366.447 179.28 367.207C180.572 371.523 180.228 376.164 178.313 380.242C177.429 382.102 175.831 384.475 173.237 385.21C172.696 385.363 172.137 385.439 171.576 385.438Z" fill="#2F2E41"/>
<defs>
<clipPath id="clip0_166_2">
<rect width="666.741" height="729.254" fill="white" transform="translate(610)"/>
</clipPath>
</defs>
</svg>
