<svg width="161" height="46" viewBox="0 0 161 46" fill="none" xmlns="http://www.w3.org/2000/svg">
<path d="M2.416 5.36612V3.67012H7.424V5.36612H2.416ZM2.416 9.81412V8.16612H7.264V9.81412H2.416ZM1.248 3.67012H3.104V14.8701H1.248V3.67012ZM13.7358 9.52612H15.7838L19.5758 14.8701H17.3038L13.7358 9.52612ZM11.4318 3.67012H13.3198V14.8701H11.4318V3.67012ZM12.5518 5.30212V3.67012H14.8878C15.6984 3.67012 16.4024 3.81412 16.9998 4.10212C17.6078 4.39012 18.0771 4.79545 18.4078 5.31812C18.7384 5.83012 18.9038 6.43812 18.9038 7.14212C18.9038 7.84612 18.7384 8.45945 18.4078 8.98212C18.0771 9.50478 17.6078 9.91012 16.9998 10.1981C16.4024 10.4861 15.6984 10.6301 14.8878 10.6301H12.5518V9.07812H14.8078C15.2344 9.07812 15.6078 9.00345 15.9278 8.85412C16.2584 8.70478 16.5144 8.49145 16.6958 8.21412C16.8771 7.92612 16.9678 7.58478 16.9678 7.19012C16.9678 6.78478 16.8771 6.44345 16.6958 6.16612C16.5144 5.88878 16.2584 5.67545 15.9278 5.52612C15.6078 5.37678 15.2344 5.30212 14.8078 5.30212H12.5518ZM23.9554 14.8701V13.2061H29.6034V14.8701H23.9554ZM23.9554 5.33412V3.67012H29.6034V5.33412H23.9554ZM23.9554 9.68612V8.05412H29.2834V9.68612H23.9554ZM22.7874 3.67012H24.6434V14.8701H22.7874V3.67012ZM34.936 14.8701V13.2061H40.584V14.8701H34.936ZM34.936 5.33412V3.67012H40.584V5.33412H34.936ZM34.936 9.68612V8.05412H40.264V9.68612H34.936ZM33.768 3.67012H35.624V14.8701H33.768V3.67012ZM44.7486 3.67012H46.6366V13.1741H51.0846V14.8701H44.7486V3.67012ZM56.1201 11.9901L56.4721 10.3901H61.6721L62.0401 11.9901H56.1201ZM59.0481 6.83812L57.2881 10.9501L57.2561 11.3661L55.7041 14.8701H53.5761L59.0481 3.04612L64.5201 14.8701H62.3921L60.8721 11.4621L60.8241 10.9981L59.0481 6.83812ZM75.839 3.67012H77.695V15.4301L69.519 7.35012V14.8701H67.663V3.11012L75.839 11.1901V3.67012ZM83.4106 9.27012C83.4106 10.0595 83.5866 10.7528 83.9386 11.3501C84.3013 11.9475 84.7706 12.4115 85.3466 12.7421C85.9333 13.0621 86.568 13.2221 87.2506 13.2221C87.784 13.2221 88.264 13.1528 88.6906 13.0141C89.1173 12.8755 89.5013 12.6888 89.8426 12.4541C90.1946 12.2088 90.4986 11.9368 90.7546 11.6381V13.8781C90.2853 14.2621 89.7786 14.5555 89.2346 14.7581C88.6906 14.9608 88.008 15.0621 87.1866 15.0621C86.3653 15.0621 85.5973 14.9235 84.8826 14.6461C84.1786 14.3688 83.5653 13.9688 83.0426 13.4461C82.52 12.9235 82.1093 12.3101 81.8106 11.6061C81.5226 10.8915 81.3786 10.1128 81.3786 9.27012C81.3786 8.42745 81.5226 7.65412 81.8106 6.95012C82.1093 6.23545 82.52 5.61678 83.0426 5.09412C83.5653 4.57145 84.1786 4.17145 84.8826 3.89412C85.5973 3.61678 86.3653 3.47812 87.1866 3.47812C88.008 3.47812 88.6906 3.57945 89.2346 3.78212C89.7786 3.98478 90.2853 4.27812 90.7546 4.66212V6.90212C90.4986 6.60345 90.1946 6.33678 89.8426 6.10212C89.5013 5.85678 89.1173 5.66478 88.6906 5.52612C88.264 5.38745 87.784 5.31812 87.2506 5.31812C86.568 5.31812 85.9333 5.48345 85.3466 5.81412C84.7706 6.13412 84.3013 6.59278 83.9386 7.19012C83.5866 7.77678 83.4106 8.47012 83.4106 9.27012ZM96.0891 14.8701V13.2061H101.737V14.8701H96.0891ZM96.0891 5.33412V3.67012H101.737V5.33412H96.0891ZM96.0891 9.68612V8.05412H101.417V9.68612H96.0891ZM94.9211 3.67012H96.7771V14.8701H94.9211V3.67012ZM2.22 20.8701H7.44V41.8701H2.22V20.8701ZM9.72 41.8701H5.58V37.3701H9.54C10.34 37.3701 11.11 37.2701 11.85 37.0701C12.61 36.8701 13.27 36.5401 13.83 36.0801C14.41 35.6201 14.87 35.0101 15.21 34.2501C15.55 33.4701 15.72 32.5101 15.72 31.3701C15.72 30.2301 15.55 29.2801 15.21 28.5201C14.87 27.7401 14.41 27.1201 13.83 26.6601C13.27 26.2001 12.61 25.8701 11.85 25.6701C11.11 25.4701 10.34 25.3701 9.54 25.3701H5.58V20.8701H9.72C12.02 20.8701 14.01 21.3001 15.69 22.1601C17.37 23.0201 18.67 24.2301 19.59 25.7901C20.51 27.3501 20.97 29.2101 20.97 31.3701C20.97 33.5101 20.51 35.3701 19.59 36.9501C18.67 38.5101 17.37 39.7201 15.69 40.5801C14.01 41.4401 12.02 41.8701 9.72 41.8701ZM27.942 31.3701C27.942 32.6101 28.182 33.7101 28.662 34.6701C29.162 35.6101 29.852 36.3501 30.732 36.8901C31.632 37.4301 32.682 37.7001 33.882 37.7001C35.062 37.7001 36.092 37.4301 36.972 36.8901C37.872 36.3501 38.562 35.6101 39.042 34.6701C39.542 33.7101 39.792 32.6101 39.792 31.3701C39.792 30.1301 39.552 29.0401 39.072 28.1001C38.592 27.1401 37.912 26.3901 37.032 25.8501C36.152 25.3101 35.102 25.0401 33.882 25.0401C32.682 25.0401 31.632 25.3101 30.732 25.8501C29.852 26.3901 29.162 27.1401 28.662 28.1001C28.182 29.0401 27.942 30.1301 27.942 31.3701ZM22.572 31.3701C22.572 29.7501 22.852 28.2701 23.412 26.9301C23.992 25.5901 24.792 24.4301 25.812 23.4501C26.832 22.4701 28.032 21.7201 29.412 21.2001C30.792 20.6601 32.282 20.3901 33.882 20.3901C35.502 20.3901 36.992 20.6601 38.352 21.2001C39.732 21.7201 40.932 22.4701 41.952 23.4501C42.972 24.4301 43.762 25.5901 44.322 26.9301C44.882 28.2701 45.162 29.7501 45.162 31.3701C45.162 32.9901 44.882 34.4801 44.322 35.8401C43.782 37.2001 43.002 38.3801 41.982 39.3801C40.982 40.3801 39.792 41.1601 38.412 41.7201C37.032 42.2601 35.522 42.5301 33.882 42.5301C32.222 42.5301 30.702 42.2601 29.322 41.7201C27.942 41.1601 26.742 40.3801 25.722 39.3801C24.722 38.3801 23.942 37.2001 23.382 35.8401C22.842 34.4801 22.572 32.9901 22.572 31.3701ZM47.9606 20.8701H53.0306V37.5201H61.4606V41.8701H47.9606V20.8701ZM63.3602 20.8701H68.4302V41.8701H63.3602V20.8701ZM66.5402 25.0401V20.8701H70.6502C72.4302 20.8701 73.9202 21.1501 75.1202 21.7101C76.3402 22.2501 77.2602 23.0301 77.8802 24.0501C78.5002 25.0701 78.8102 26.3001 78.8102 27.7401C78.8102 29.1401 78.5002 30.3601 77.8802 31.4001C77.2602 32.4201 76.3402 33.2101 75.1202 33.7701C73.9202 34.3101 72.4302 34.5801 70.6502 34.5801H66.5402V30.4101H70.6502C71.6702 30.4101 72.4702 30.1801 73.0502 29.7201C73.6302 29.2601 73.9202 28.6001 73.9202 27.7401C73.9202 26.8601 73.6302 26.1901 73.0502 25.7301C72.4702 25.2701 71.6702 25.0401 70.6502 25.0401H66.5402ZM83.0116 33.0801V28.5201H98.9116V33.0801H83.0116ZM95.7016 20.8701H100.772V41.8701H95.7016V20.8701ZM81.6016 20.8701H86.6716V41.8701H81.6016V20.8701ZM104.736 20.8701H109.896V41.8701H104.736V20.8701ZM128.385 20.8701H133.275V42.9201L118.755 30.0501V41.8701H113.895V19.8201L128.385 32.6901V20.8701Z" fill="white"/>
<g filter="url(#filter0_d_118_32247)">
<path d="M121.821 0.0224228C118.437 0.207405 115.979 0.868622 114.42 2.01788C114.033 2.30519 113.506 2.84439 113.271 3.20255C113.025 3.57252 112.829 3.99759 112.728 4.40298C112.611 4.84772 112.603 5.79232 112.712 6.27642C112.779 6.56767 112.783 6.60703 112.728 6.63852C112.521 6.75659 111.677 7.39419 111.505 7.56343C111.259 7.80745 111.223 7.89404 111.305 8.05147C111.36 8.16561 111.356 8.16954 111.27 8.19316C111.219 8.20497 111.137 8.26007 111.087 8.31517C111.008 8.39782 110.997 8.44899 111.001 8.693C111.008 9.45655 111.509 9.86588 112.618 10.0154C112.779 10.0391 113.341 10.0902 113.869 10.1374C116.178 10.3342 117.101 10.4799 118.089 10.8065C118.73 11.0191 119.692 11.5229 119.692 11.6449C119.692 11.6724 119.621 11.8574 119.535 12.0581C119.066 13.1523 118.847 14.3921 118.914 15.6082C119.012 17.3951 119.852 18.997 121.321 20.2052C121.81 20.6067 122.982 21.323 123.044 21.2561C123.06 21.2443 123.083 20.7326 123.095 20.1226C123.123 18.9222 123.169 18.5128 123.361 17.769C123.611 16.8086 123.994 16.0884 124.588 15.4626L124.897 15.1399L124.639 14.7148C124.393 14.3015 124.123 13.7308 124.158 13.6954C124.17 13.6836 124.35 13.7899 124.561 13.9276C126.319 15.069 130.106 17.0527 133.798 18.7647C134.693 19.178 135.026 19.3551 137.081 20.4886C139.965 22.0826 140.957 22.6061 141.997 23.0705C142.872 23.4641 143.177 23.653 143.763 24.1686C144.346 24.6763 144.924 25.4084 145.569 26.4435C145.744 26.7308 146.12 27.3094 146.405 27.7305C147.796 29.8086 149.047 32.115 149.977 34.323C150.149 34.7284 150.535 35.8029 150.516 35.8186C150.508 35.8225 150.313 35.8658 150.078 35.9131C147.554 36.4208 144.611 39.1837 143.65 41.9506C143.427 42.5961 143.322 43.3242 143.408 43.6784L143.431 43.7847L143.92 43.4856C144.893 42.8912 145.561 42.5882 146.202 42.4426C146.628 42.3481 147.097 42.3599 148.335 42.4937C149.523 42.6275 150.551 42.6197 151.891 42.4701C154.213 42.2104 156.307 42.3678 157.796 42.907C158.437 43.1392 158.73 43.3006 160.379 44.3357C160.696 44.5325 160.965 44.6938 160.981 44.6938C161.039 44.6938 160.953 43.5013 160.86 42.9385C160.731 42.1985 160.633 41.8128 160.469 41.3996C159.934 40.0614 158.304 38.2824 156.667 37.2434C156.46 37.1135 155.971 36.838 155.584 36.6333C154.56 36.0941 154.295 35.9249 154.025 35.6572C153.759 35.3935 153.587 35.0826 153.533 34.7638C153.513 34.6536 153.478 34.2679 153.454 33.9097C153.177 29.6276 152.458 25.5776 151.317 21.9055C151.219 21.5907 151.125 21.2758 151.102 21.2049C151.008 20.8822 150.504 19.4929 150.219 18.7765C148.855 15.3406 147.202 12.554 144.986 9.9564C144.303 9.15743 143.978 8.69695 143.705 8.14987C143.349 7.44142 143.255 6.89041 143.408 6.40237C143.529 6.01272 143.81 5.69392 144.224 5.49319C144.357 5.42629 144.467 5.34757 144.467 5.32396C144.467 5.26098 144.193 4.78869 143.982 4.4935C143.744 4.15502 143.275 3.72208 143.013 3.59614C142.603 3.39148 142.337 3.35212 141.497 3.35212C140.661 3.35605 140.051 3.41509 138.675 3.62369L137.788 3.76144L137.112 3.39935C133.65 1.55739 129.738 0.431747 125.608 0.081459C124.756 0.00667953 122.673 -0.024807 121.821 0.0224228Z" fill="white"/>
</g>
<defs>
<filter id="filter0_d_118_32247" x="109" y="0" width="52" height="45.6938" filterUnits="userSpaceOnUse" color-interpolation-filters="sRGB">
<feFlood flood-opacity="0" result="BackgroundImageFix"/>
<feColorMatrix in="SourceAlpha" type="matrix" values="0 0 0 0 0 0 0 0 0 0 0 0 0 0 0 0 0 0 127 0" result="hardAlpha"/>
<feOffset dx="-2" dy="1"/>
<feComposite in2="hardAlpha" operator="out"/>
<feColorMatrix type="matrix" values="0 0 0 0 0.172549 0 0 0 0 0.733333 0 0 0 0 0.733333 0 0 0 1 0"/>
<feBlend mode="normal" in2="BackgroundImageFix" result="effect1_dropShadow_118_32247"/>
<feBlend mode="normal" in="SourceGraphic" in2="effect1_dropShadow_118_32247" result="shape"/>
</filter>
</defs>
</svg>
