<?xml version="1.0" standalone="no"?>
<!DOCTYPE svg PUBLIC "-//W3C//DTD SVG 20010904//EN"
 "http://www.w3.org/TR/2001/REC-SVG-20010904/DTD/svg10.dtd">
<svg version="1.0" xmlns="http://www.w3.org/2000/svg"
 width="580.000000pt" height="580.000000pt" viewBox="0 0 580.000000 580.000000"
 preserveAspectRatio="xMidYMid meet">
<metadata>
Created by potrace 1.14, written by Peter Selinger 2001-2017
</metadata>
<g transform="translate(0.000000,580.000000) scale(0.100000,-0.100000)"
fill="#000000" stroke="none">
<path d="M1339 5446 c-2 -2 -33 -6 -69 -10 -194 -19 -340 -50 -467 -98 -29
-11 -53 -18 -55 -17 -2 2 -16 -5 -33 -17 -16 -11 -91 -50 -165 -87 -135 -66
-180 -96 -252 -172 -40 -42 -90 -129 -103 -180 -11 -42 -14 -153 -5 -208 7
-46 7 -46 -39 -79 -76 -54 -121 -100 -121 -123 0 -13 -7 -28 -15 -35 -26 -22
-14 -100 23 -138 21 -23 109 -50 180 -57 37 -3 87 -8 112 -11 25 -2 70 -6 100
-8 58 -5 138 -14 180 -22 14 -2 40 -7 59 -10 97 -16 301 -101 301 -126 0 -5
-7 -25 -16 -46 -22 -52 -52 -158 -60 -217 -36 -255 32 -468 203 -639 64 -64
237 -185 248 -174 2 2 5 48 6 102 2 53 6 99 9 101 4 2 29 -11 57 -30 62 -41
124 -77 128 -73 2 2 6 69 9 149 4 95 13 174 26 225 22 86 84 222 105 230 7 3
45 -12 85 -33 39 -21 103 -55 143 -76 118 -63 452 -230 597 -298 135 -63 177
-85 300 -151 36 -20 81 -44 100 -54 19 -11 37 -21 40 -24 3 -3 21 -13 40 -23
19 -9 76 -40 125 -67 50 -28 181 -96 293 -151 189 -95 208 -106 280 -178 45
-44 107 -120 146 -181 38 -58 90 -136 116 -175 52 -77 142 -222 153 -245 4 -8
23 -42 42 -75 84 -143 265 -532 265 -568 0 -2 -66 -37 -146 -77 -80 -39 -175
-95 -212 -122 -266 -202 -457 -526 -423 -720 0 -4 25 7 53 26 71 45 139 79
145 72 3 -3 18 3 33 14 57 41 130 45 350 23 88 -9 185 -8 305 2 128 11 465 12
530 2 70 -11 158 -35 217 -58 42 -16 206 -111 299 -172 25 -17 27 -17 31 0 2
10 -1 62 -7 116 -5 53 -9 97 -7 97 1 0 48 -29 105 -64 56 -36 104 -63 106 -60
13 13 -10 212 -36 304 -13 49 -75 177 -92 190 -3 3 -19 23 -36 45 -44 60 -172
185 -243 238 -35 25 -122 79 -194 118 -219 120 -228 133 -243 354 -8 120 -13
181 -20 233 -3 23 -7 63 -10 90 -8 63 -25 191 -31 222 -2 14 -7 43 -10 65 -3
22 -10 56 -14 75 -5 19 -12 50 -15 68 -3 17 -7 45 -10 61 -16 92 -105 420
-155 571 -155 471 -352 844 -619 1175 -36 44 -68 82 -71 85 -23 19 -106 140
-131 191 -61 123 -48 219 37 281 24 17 44 35 44 40 0 22 -85 131 -126 162 -53
41 -88 49 -199 50 -80 0 -232 -11 -244 -18 -3 -2 -33 -7 -66 -10 -33 -4 -69
-10 -81 -12 -14 -4 -67 18 -150 60 -71 35 -180 85 -242 111 -108 44 -338 121
-392 131 -14 2 -31 7 -39 10 -18 6 -224 50 -276 59 -52 9 -67 11 -145 20 -36
4 -74 10 -85 12 -24 6 -550 14 -556 9z"/>
</g>
</svg>
